<?xml version="1.0" encoding="utf-8"?>
<!-- Generator: Adobe Illustrator 22.0.1, SVG Export Plug-In . SVG Version: 6.00 Build 0)  -->
<svg version="1.1" id="Layer_1" xmlns="http://www.w3.org/2000/svg" xmlns:xlink="http://www.w3.org/1999/xlink" x="0px" y="0px"
	 viewBox="0 0 400 300" style="enable-background:new 0 0 400 300;" xml:space="preserve">
<path style="fill:#1E3060;" d="M137.603,85.842c-1.154-1.067-1.261-3.119-0.201-4.284c0.528-0.632,1.321-1.038,2.139-1.108
	c1.28-0.082,2.481,0.728,2.989,1.885c0.508,1.28,0.196,2.827-0.91,3.693C140.449,87.009,138.69,86.893,137.603,85.842z
	 M250.638,84.141c0.687,1.314,0.588,3.158,0.622,4.615c-0.002,8.957,0.024,17.913-0.017,26.87c-0.041,0.898,0.058,2.018-0.576,2.735
	c-0.731,0.791-1.735,0.801-2.737,0.82c-0.315,0.036-0.767-0.048-1.019,0.177c-0.041,0.411-0.031,0.828-0.036,1.239
	c4.296,0.024,8.591,0.005,12.887,0.012c-0.007-0.472-0.017-0.944-0.029-1.413c-1.048-0.024-2.331,0.092-3.24-0.501
	c-0.653-0.436-0.82-1.118-0.881-1.859c-0.116-1.769-0.063-3.555-0.075-5.327c-0.01-10.375,0.019-20.755-0.012-31.129
	c-2.694,0.736-5.39,1.304-8.199,1.304c-0.007,0.465-0.012,0.929-0.017,1.394C248.368,83.163,249.96,83.161,250.638,84.141z
	 M202.101,120.607c-6.326,0-12.652,0.002-18.978-0.002c0.007-0.472,0.015-0.941,0.024-1.413c1.423-0.027,3.182,0.143,4.489-0.477
	c1.106-0.554,1.537-1.667,1.619-2.844c0.056-1.212,0.126-2.425,0.182-3.635c0-7.18-0.002-14.358,0-21.539
	c0.046-1.784-0.092-3.548-0.203-5.329c-0.111-1.164-0.576-2.306-1.803-2.643c-1.302-0.269-2.669-0.317-3.998-0.332
	c-0.002-0.443-0.007-0.888-0.01-1.331c3.671-0.244,7.352-0.44,11.031-0.506c2.989-0.198,5.987-0.128,8.964,0.203
	c2.384,0.315,4.649,0.772,6.769,1.958c1.992,1.13,3.829,2.885,4.576,5.094c0.518,1.37,0.535,2.887,0.378,4.327
	c-0.368,2.614-1.987,4.915-4.182,6.338c-2.093,1.348-4.412,1.958-6.861,2.268c0.709,0.457,1.379,0.961,1.98,1.559
	c3.741,3.637,6.2,7.814,9.612,11.687c1.021,1.179,2.057,2.287,3.318,3.216c1.733,1.295,3.94,1.948,6.089,2.001
	c0.007,0.467,0.015,0.932,0.019,1.399c-3.286,0.007-6.57-0.012-9.857,0.01c-0.353-0.024-0.832,0.044-1.118-0.198
	c-0.699-0.501-1.295-1.164-1.9-1.771c-4.777-5.164-7.788-11.067-12.669-16.132c-1.091-1.183-2.865-0.987-4.322-1.016
	c-0.017,4.303-0.039,8.613,0.019,12.916c0.027,1.164,0.014,2.539,0.738,3.519c0.62,0.835,1.58,1.096,2.568,1.2
	c1.159,0.094,2.335,0.051,3.499,0.058C202.084,119.663,202.093,120.135,202.101,120.607z M195.23,82.943
	c0.012,5.719,0.002,11.437,0.005,17.153c3.032-0.058,6.59,0.065,9.424-1.106c1.914-0.774,3.139-2.454,3.708-4.392
	c0.583-2.229,0.564-4.574,0.01-6.805c-0.419-1.459-1.205-3.044-2.442-3.979c-1.583-1.142-3.533-1.447-5.428-1.658
	c-1.728-0.155-3.509-0.206-5.232,0C195.245,82.418,195.23,82.679,195.23,82.943z M57.042,120.604
	c-0.002-0.457-0.002-0.915-0.002-1.372c1.648-0.341,3.163-0.864,4.192-2.28c1.435-2.026,2.311-4.613,3.26-6.895
	c3.824-9.09,7.63-18.189,11.447-27.284c0.327-0.757,0.583-1.602,1.05-2.287c0.358-0.041,0.724-0.034,1.084-0.039
	c4.913,11.573,9.712,23.196,14.685,34.743c0.547,1.256,1.091,2.522,2.34,3.231c0.84,0.46,2.001,0.932,2.931,0.479
	c0.581-0.23,1.043-0.697,1.174-1.321c0.293-1.583,0.196-3.253,0.244-4.859c-0.002-7.989-0.002-15.977-0.002-23.966
	c-0.01-1.208-0.077-2.442-0.312-3.628c-0.126-0.557-0.281-1.075-0.772-1.418c-0.806-0.544-1.941-0.542-2.875-0.629
	c0.01-0.465,0.022-0.932,0.034-1.399c2.764-0.012,5.455-0.537,8.098-1.317c0.09,1.428,0.044,2.853,0.051,4.284
	c0.002,9.116,0,18.23,0.002,27.347c-0.002,1.774-0.031,3.582,0.15,5.348c0.065,0.704,0.528,1.295,1.183,1.556
	c0.864,0.356,1.958,0.281,2.885,0.3c0.005,0.469,0.01,0.937,0.015,1.406c-8.562,0.017-17.093,0.005-25.655,0
	c0.007-0.469,0.012-0.941,0.019-1.411c1.181-0.027,2.529,0.034,3.657-0.336c0.668-0.206,1.225-0.803,1.21-1.532
	c-0.027-0.917-0.499-1.851-0.818-2.706c-1.179-2.858-2.347-5.728-3.572-8.569c-4.983,0.01-9.966,0.005-14.949,0.002
	c-0.881,2.132-1.786,4.262-2.551,6.437c-0.44,1.285-0.83,2.49-0.668,3.872c0.07,0.716,0.445,1.365,0.992,1.82
	c0.934,0.782,2.038,0.985,3.224,1.038c0.012,0.46,0.022,0.922,0.031,1.384C64.895,120.609,60.969,120.607,57.042,120.604z
	 M68.372,104.649c4.62,0.007,9.242,0.005,13.865-0.002c-2.318-5.564-4.639-11.125-6.938-16.696
	C72.978,93.512,70.693,99.087,68.372,104.649z M136.449,98.828c0.833,0.189,1.29,0.992,1.433,1.776
	c0.177,1.285,0.249,2.589,0.237,3.887c-0.012,3.792,0.005,7.585-0.007,11.377c-0.048,0.956-0.044,2.159-0.886,2.798
	c-0.946,0.695-2.522,0.486-3.637,0.528c-0.005,0.469-0.012,0.941-0.017,1.411c4.342,0,8.683,0.012,13.025-0.007
	c-0.044-0.469-0.099-0.937-0.123-1.411c-0.951-0.015-2.035,0.085-2.906-0.356c-0.591-0.286-0.956-0.847-1.043-1.493
	c-0.235-1.428-0.184-2.931-0.191-4.375c-0.005-5.779,0.015-11.558-0.007-17.337c-0.738,0.172-1.474,0.336-2.202,0.547
	c-2.173,0.622-4.325,0.837-6.554,1.106c0.002,0.448,0.007,0.898,0.012,1.348C134.527,98.657,135.522,98.623,136.449,98.828z
	 M108.758,113.48c-0.874-2.635-0.995-5.554-0.37-8.26c0.699-3.013,2.611-5.607,5.138-7.359c1.975-1.367,4.274-2.047,6.662-2.149
	c2.178-0.056,4.337,0.283,6.297,1.271c3.178,1.571,5.69,4.55,6.602,7.986c0.634,2.459,0.59,5.026,0.01,7.493
	c-0.557,2.253-1.745,4.296-3.499,5.828c-3.768,3.473-9.632,4.216-14.276,2.185C112.306,119.106,109.84,116.643,108.758,113.48z
	 M112.96,108.848c-0.034,2.686,0.138,5.527,1.452,7.938c1.113,2.009,3.238,3.18,5.496,3.349c2.357,0.198,4.806-0.382,6.418-2.214
	c1.486-1.648,1.965-4.262,2.171-6.404c0.145-3.163,0.235-6.413-0.767-9.448c-0.518-1.602-1.476-3.023-2.928-3.916
	c-1.653-0.99-3.567-1.212-5.455-0.949c-2.236,0.322-4.126,1.694-5.114,3.724C113.059,103.456,112.926,106.108,112.96,108.848z
	 M222.328,113.284c-0.702-2.26-0.866-4.763-0.489-7.093c0.719-4.973,4.855-9.271,9.784-10.213c2.785-0.554,5.815-0.283,8.39,0.944
	c3.19,1.551,5.69,4.443,6.66,7.868c0.518,1.733,0.518,3.475,0.431,5.266c-0.184,3.277-1.617,6.44-4.192,8.519
	c-3.848,3.301-9.683,3.889-14.232,1.776C225.737,118.922,223.346,116.422,222.328,113.284z M226.551,108.606
	c-0.01,1.079,0.01,2.154,0.15,3.226c0.191,2.19,0.799,4.797,2.447,6.367c1.559,1.576,3.804,2.101,5.961,1.948
	c2.098-0.14,4.126-1.055,5.327-2.834c1.205-1.759,1.561-4.213,1.747-6.292c0.162-2.858,0.109-5.978-0.743-8.734
	c-0.489-1.663-1.467-3.199-2.972-4.112c-1.747-1.072-4.013-1.307-5.99-0.864c-1.931,0.424-3.628,1.648-4.506,3.437
	C226.778,103.083,226.555,106.023,226.551,108.606z M314.435,113.801c-1.079-2.844-1.12-6.118-0.407-9.053
	c1.096-4.593,5.123-8.482,9.888-8.964c2.715-0.329,5.561,0.351,7.87,1.808c0.695,0.479,1.377,0.973,2.084,1.433
	c0.041-3.26,0.005-6.52,0.022-9.779c0.015-1.45-0.056-2.909-0.184-4.354c-0.068-0.757-0.712-1.355-1.416-1.558
	c-0.82-0.228-1.742-0.228-2.589-0.276c0.015-0.46,0.031-0.922,0.048-1.382c2.877,0.017,5.564-0.695,8.349-1.285
	c0.046,11.016,0.005,22.037,0.019,33.056c0.015,1.43-0.087,2.974,0.203,4.375c0.106,0.583,0.528,1.014,1.055,1.244
	c0.828,0.363,1.784,0.302,2.679,0.346c0.012,0.465,0.022,0.929,0.034,1.394c-2.56,0.022-5.116,0.288-7.628,0.782
	c-0.269-1.423-0.344-2.844-0.324-4.291c-2.374,2.372-5.327,4.153-8.758,4.274c-2.355,0.128-4.697-0.629-6.587-2.021
	C316.851,118.068,315.307,116.091,314.435,113.801z M318.811,112.48c0.37,2.089,1.198,4.032,2.802,5.462
	c1.643,1.559,3.995,2.105,6.193,1.67c2.069-0.332,3.867-1.556,5.261-3.076c0.428-0.501,0.866-0.905,0.823-1.624
	c0.007-4.627-0.015-9.257,0.01-13.884c-1.931-1.767-4.414-3.136-7.057-3.357c-2.001-0.174-4.032,0.409-5.498,1.813
	c-1.324,1.166-2.079,2.756-2.435,4.463C318.32,106.732,318.322,109.68,318.811,112.48z M179.437,106.171
	c1.462-0.871,1.922-2.756,1.123-4.242c-0.593-1.113-1.907-1.752-3.144-1.534c-0.874,0.152-1.65,0.653-2.113,1.416
	c-0.511,0.721-0.462,1.798-0.319,2.626C175.55,106.277,177.767,107.18,179.437,106.171z M147.925,119.077
	c-1.338-1.631-1.287-3.964-0.302-5.757c0.97-1.784,2.773-2.972,4.465-4.003c3.308-1.999,6.81-3.216,10.348-4.7
	c-0.027-1.401,0.097-2.87-0.157-4.252c-0.235-1.29-1.208-2.19-2.345-2.742c-1.285-0.629-2.802-0.6-4.199-0.496
	c-1.179,0.128-2.42,0.561-3.112,1.585c-0.675,1.14-0.433,2.621-1.459,3.628c-0.578,0.692-1.655,0.699-2.444,0.455
	c-1.121-0.503-1.009-2.016-0.503-2.926c1.075-1.755,2.846-3.127,4.859-3.628c2.49-0.634,5.16-0.692,7.691-0.269
	c1.68,0.293,3.328,1.108,4.506,2.348c1.266,1.321,1.411,3.473,1.474,5.206c0.034,3.306,0.007,6.614,0.015,9.92
	c0.007,1.488-0.061,3.141,0.327,4.588c0.278,1.05,1.6,1.232,2.442,0.762c0.97-0.528,1.171-1.636,1.445-2.609
	c0.382,0.002,0.762,0.005,1.142,0.01c-0.201,1.609-0.482,3.204-1.905,4.201c-1.534,1.024-3.867,1.113-5.503,0.278
	c-1.37-0.726-1.955-2.096-2.217-3.555c-2.575,1.68-5.14,3.378-8.223,3.971C152.063,121.555,149.382,120.866,147.925,119.077z
	 M152.54,117.584c0.719,1.133,2.149,1.672,3.446,1.387c2.435-0.445,4.509-2.038,6.447-3.487c0.005-3.122,0.014-6.246-0.007-9.368
	c-2.292,0.857-4.738,1.776-6.8,3.102c-1.317,0.871-2.648,2.067-3.301,3.531C151.623,114.24,151.625,116.183,152.54,117.584z
	 M261.058,119.208c-1.251-1.416-1.365-3.514-0.714-5.227c0.612-1.573,1.796-2.667,3.146-3.613c3.654-2.553,7.863-4.075,11.972-5.723
	c0.017-1.496,0.102-3.119-0.252-4.581c-0.271-1.162-1.241-1.931-2.258-2.439c-1.285-0.644-2.817-0.595-4.216-0.496
	c-1.212,0.121-2.543,0.649-3.185,1.745c-0.535,0.985-0.407,2.437-1.244,3.352c-0.624,0.823-2.081,0.944-2.892,0.375
	c-0.787-0.673-0.586-2.076-0.09-2.87c1.123-1.779,2.933-3.061,4.983-3.543c2.427-0.569,4.997-0.632,7.456-0.218
	c1.738,0.3,3.461,1.164,4.644,2.483c1.196,1.343,1.304,3.364,1.348,5.072c0.034,3.952-0.002,7.906,0.017,11.861
	c0.031,0.98,0.068,2.118,0.494,3.015c0.532,0.784,1.711,0.811,2.444,0.302c0.854-0.588,1.026-1.571,1.278-2.505
	c0.382-0.002,0.767-0.005,1.152-0.005c-0.092,1.055-0.278,2.03-0.806,2.967c1.019,0.005,2.069,0.085,2.979-0.465
	c0.583-0.346,0.818-0.951,0.871-1.602c0.152-1.769,0.087-3.565,0.102-5.341c-0.012-3.323,0.029-6.648-0.022-9.971
	c-0.056-0.825,0.01-1.984-0.666-2.585c-0.794-0.745-2.234-0.67-3.253-0.791c0-0.436-0.002-0.874-0.002-1.309
	c1.631-0.252,3.253-0.482,4.847-0.92c0.852-0.242,1.699-0.445,2.582-0.52c0.462,1.621,0.668,3.255,0.74,4.937
	c1.263-1.496,2.677-2.795,4.431-3.691c2.03-1.075,4.407-1.462,6.667-1.029c2.178,0.324,4.395,1.716,5.114,3.884
	c0.375,1.203,0.465,2.512,0.523,3.763c0.041,4.351-0.068,8.727,0.094,13.073c0.044,0.774,0.104,1.469,0.75,1.987
	c0.847,0.658,2.072,0.571,3.083,0.622c0.007,0.469,0.015,0.937,0.019,1.404c-4.119-0.007-8.238,0.019-12.357-0.012
	c0.07-0.344-0.145-1.2,0.213-1.358c1.121-0.167,2.34,0.133,3.24-0.736c0.799-0.803,0.651-1.839,0.709-2.878
	c0.036-3.71,0.005-7.422,0.017-11.132c-0.015-1.241-0.015-2.531-0.276-3.751c-0.215-1.113-1.123-2.05-2.091-2.577
	c-1.713-0.866-3.785-0.629-5.484,0.15c-1.798,0.847-3.303,2.427-4.436,4.034c-0.319,0.426-0.237,0.912-0.261,1.418
	c0.036,4.199-0.046,8.388,0.09,12.584c0.048,0.806,0.102,1.716,0.796,2.253c0.835,0.615,2.101,0.557,3.093,0.6
	c0.007,0.467,0.012,0.934,0.017,1.401c-4.015,0.002-8.032,0.007-12.05-0.002c-0.102-0.365-0.169-0.741-0.276-1.106
	c-0.45,0.532-0.878,1.009-1.542,1.263c-1.682,0.716-3.996,0.697-5.467-0.486c-1.019-0.833-1.314-1.951-1.667-3.156
	c-2.379,1.655-5.111,3.342-7.981,3.94C265.24,121.565,262.624,120.962,261.058,119.208z M265.567,117.584
	c0.724,1.125,2.132,1.665,3.432,1.394c2.391-0.431,4.559-2.072,6.464-3.497c0.034-3.136,0.017-6.275,0.01-9.414
	c-2.635,1.101-5.225,1.929-7.543,3.664c-1.292,0.966-2.529,2.335-2.906,3.94C264.834,114.953,264.778,116.478,265.567,117.584z
	 M175.516,132.872c-4.235,1.002-7.601,4.896-8.148,9.189c-0.259,1.396,0.005,2.681,0.121,4.071
	c-3.398,1.742-6.137,4.637-7.742,8.098c-1.106,2.321-1.508,4.857-1.438,7.413l0.126,0.179c0.06,2.761,1.479,5.527,3.466,7.413
	c2.41,2.226,5.404,3.567,8.591,4.257c2.439,0.513,5.022,0.77,7.502,0.448c4.136-0.397,8.272-1.859,11.631-4.329
	c2.347-1.769,4.409-4.017,5.617-6.723c1.111-2.459,1.554-5.259,1.181-7.935c-0.198-1.319-0.753-2.413-1.268-3.628
	c0.978-0.048,1.953-0.015,2.928-0.048c4.291-0.315,8.603-2.219,10.801-6.082c0.027,4.1,0.007,8.199,0.012,12.299
	c-0.007,2.991,0.041,5.999-0.116,8.986c-0.123,1.227-0.182,2.42-0.915,3.461c-1.234,1.849-3.226,2.582-5.368,2.756
	c0,0.462,0.002,0.927,0.002,1.392c4.719-0.005,9.438,0.002,14.157-0.005c0-0.462,0-0.927,0-1.389
	c-1.542-0.177-2.984-0.472-4.211-1.491c-0.929-0.786-1.619-1.82-1.808-3.04c-0.295-1.827-0.244-3.729-0.312-5.578
	c-0.007-7.95-0.007-15.905,0-23.855c5.239,11.788,10.508,23.567,15.743,35.357c0.472,0,0.944,0,1.416,0
	c4.797-10.859,9.605-21.713,14.399-32.572c0.409-0.891,0.791-1.793,1.157-2.703c0.085,7.918,0.015,15.842,0.039,23.763
	c-0.029,2.34,0.099,4.751-0.198,7.074c-0.145,1.067-0.554,2.047-1.58,2.531c-1.363,0.6-3.136,0.472-4.598,0.508
	c0.002,0.465,0.002,0.929,0.002,1.394c6.309,0.007,12.621,0,18.93,0.002c0-0.467,0.002-0.932,0.002-1.399
	c-1.394-0.017-2.897,0.063-4.259-0.252c-0.767-0.182-1.452-0.583-1.844-1.285c-0.6-1.053-0.515-2.335-0.603-3.512
	c-0.102-1.445-0.063-2.89-0.065-4.337c-0.005-6.534,0.002-13.068-0.005-19.603c-0.024-1.617,0.073-3.24,0.186-4.852
	c0.102-1.06,0.494-2.224,1.607-2.587c1.549-0.46,3.376-0.361,4.978-0.361c0.002-0.469,0.005-0.937,0.005-1.406
	c-3.374-0.01-6.747,0.007-10.121-0.005c-0.682,0.002-1.401-0.051-2.074,0.082c-4.782,10.706-9.598,21.795-14.378,32.535
	c-4.835-10.869-9.634-21.754-14.482-32.615c-2.759,0-5.515,0-8.272,0c-1.423,0.019-2.681-0.215-4.056,0.288
	c-1.367,0.484-2.761,1.329-3.279,2.759c-0.184,0.736-0.249,1.677,0.416,2.2c0.629,0.663,1.779,0.615,2.58,0.363
	c1.409-0.491,1.909-1.813,2.982-2.858c0.472,0.019,0.975-0.007,1.433,0.106c1.065,0.472,1.73,1.597,1.849,2.73
	c0.174,1.687-0.518,3.378-1.704,4.569c-1.254,1.271-3.059,2.035-4.804,2.314c-2.708,0.508-5.74-0.024-8.492-0.264
	c-2.343-0.298-4.557-0.491-6.822,0.336c-3.139,1.072-5.941,3.545-6.713,6.866c-0.307,1.445-0.312,3.226,0.547,4.496
	c1.409,2.246,5.285,2.331,6.66,0.012c0.699-1.108,0.646-2.74-0.675-3.349c-1.413-0.561-2.735,0.264-4.163,0.399
	c-0.169-0.128-0.341-0.257-0.513-0.38c-0.617-1.454-0.109-2.868,1.179-3.715c2.769-1.689,6.353-1.781,9.264-0.387
	c1.229,0.62,2.195,1.704,2.57,3.04c0.511,1.733,0.242,3.751-0.24,5.467c-0.76,2.669-2.619,4.777-4.85,6.348
	c-2.819,1.965-6.135,2.95-9.545,3.18c-3.032,0.198-6.055-0.092-8.923-1.137c-2.747-0.944-5.452-2.524-7.115-4.966
	c-0.656-0.912-1.05-1.929-1.44-2.972c-0.547-2.454-0.535-4.959,0.511-7.28c0.777-1.854,2.135-3.361,3.771-4.501
	c0.409-0.283,0.862-0.411,1.329-0.552c1.036,1.336,2.297,2.585,4.114,2.546c1.418,0.077,2.885-0.733,3.441-2.062
	c0.276-0.922,0.145-1.963-0.644-2.594c-1.283-1.062-3.313-0.912-4.813-0.472c-0.38-0.503-0.76-0.963-0.92-1.59
	c-0.637-2.834,0.547-6.036,3.095-7.529c1.36-0.801,2.955-1.367,4.504-0.736c1.036,0.356,1.522,1.13,2.26,1.859
	c0.852,0.888,2.418,0.782,3.18-0.177c0.581-0.574,0.503-1.438,0.392-2.178c-0.402-1.242-1.638-1.525-2.718-1.948
	C178.503,132.613,176.949,132.513,175.516,132.872z M135.704,170.588c-0.063,0.811-0.598,1.549-1.377,1.805
	c-0.888,0.312-1.953,0.273-2.885,0.307c-0.002,0.46-0.005,0.92-0.01,1.379c8.073,0.005,16.147,0,24.218,0.002
	c0.002-0.46,0.002-0.922,0.002-1.382c-1.07-0.053-2.514,0.029-3.415-0.624c-0.847-0.68-0.765-1.75-0.789-2.725
	c-0.002-11.539-0.002-23.083,0.002-34.622c0.017-0.319-0.046-0.607-0.186-0.857c-0.881,0.133-1.682,0.448-2.548,0.639
	c-1.81,0.37-3.628,0.646-5.481,0.627c-0.007,0.467-0.015,0.934-0.022,1.404c1.111,0.08,2.689,0.051,3.347,1.14
	c0.489,1.079,0.518,2.422,0.561,3.591c-0.007,9.276,0.015,18.557-0.01,27.831c-0.061,0.862,0.041,2.193-0.68,2.807
	c-0.658,0.707-1.905,0.733-2.802,0.762c-0.954-0.017-2.304-0.061-2.974-0.849c-0.651-0.709-0.511-1.784-0.554-2.677
	c-0.034-11.764,0.012-23.53-0.022-35.297c-2.708,0.673-5.356,1.321-8.17,1.295c-0.005,0.465-0.007,0.929-0.01,1.396
	c0.973,0.073,2.127,0.068,2.938,0.692c0.545,0.428,0.666,1.203,0.779,1.842c0.194,1.28,0.169,2.602,0.189,3.894
	c-0.002,7.827,0.002,15.653-0.002,23.477C135.757,167.827,135.8,169.214,135.704,170.588z M50.459,167.895
	c-0.782,1.433-1.895,2.89-3.325,3.717c-1.152,0.666-2.626,0.881-3.933,0.978c-1.854,0.119-3.717,0.099-5.571,0.085
	c-1.188-0.044-2.493-0.036-3.635-0.39c-0.803-0.237-1.532-0.874-1.75-1.699c-0.242-1.135-0.264-2.26-0.281-3.415
	c0.002-8.066,0.002-16.135,0-24.201c-0.017-1.544,0.044-3.083,0.261-4.613c0.15-0.91,0.632-1.837,1.573-2.118
	c1.626-0.455,3.536-0.339,5.215-0.346c0-0.469-0.002-0.937-0.002-1.404c-6.338-0.005-12.674-0.002-19.012,0
	c0.005,0.467,0.007,0.932,0.01,1.399c1.454-0.007,3.049-0.034,4.453,0.38c0.992,0.397,1.384,1.37,1.532,2.36
	c0.259,1.907,0.167,3.872,0.203,5.794c-0.019,7.664,0.041,15.329-0.034,22.991c-0.07,1.508-0.005,3.577-1.387,4.555
	c-1.302,0.828-3.289,0.675-4.775,0.721c0.002,0.465,0.005,0.929,0.005,1.394c11.219,0.002,22.439-0.002,33.661,0.002
	c0.068-3.901,0.189-7.8,0.293-11.699c-0.477,0-0.954,0-1.43,0.002C51.993,164.255,51.367,166.172,50.459,167.895z M302.318,153.149
	c0.215-1.537-0.953-3.069-2.316-3.649c-2.043-0.77-4.189-0.082-5.866,1.176c-1.539,1.077-2.631,2.546-3.456,4.216
	c-0.121-1.938-0.387-3.744-0.874-5.624c-0.738,0.114-1.464,0.271-2.178,0.501c-1.689,0.523-3.4,0.898-5.155,1.13
	c-0.005,0.443-0.01,0.888-0.012,1.333c0.862,0.031,1.82,0.029,2.645,0.293c0.76,0.247,1.353,0.975,1.392,1.784
	c0.107,1.215,0.075,2.447,0.082,3.666c-0.012,3.71,0.017,7.422-0.017,11.13c-0.065,1.014,0.109,2.079-0.699,2.844
	c-0.811,0.794-2.352,0.69-3.4,0.755c0.002,0.46,0.005,0.92,0.005,1.379c4.257-0.002,8.514,0.007,12.768-0.005
	c0-0.46-0.002-0.92-0.002-1.377c-1.055-0.061-2.488,0.058-3.403-0.552c-0.799-0.549-0.92-1.406-0.932-2.306
	c-0.027-3.149-0.002-6.299-0.012-9.45c0.046-1.866,0.237-4.01,1.283-5.615c0.784-1.196,1.827-2.277,3.057-3.013
	c0.711-0.397,1.602-0.675,2.275-0.046c0.83,0.939,0.796,2.333,2.033,3.035C300.718,155.422,302.265,154.454,302.318,153.149z
	 M78.133,171.929c-0.782-0.711-0.615-2.098-0.68-3.064c-0.073-6.234-0.01-12.473-0.034-18.71c-2.798,0.01-5.595-0.002-8.393,0.005
	c0,0.462,0,0.924,0,1.387c1.019,0.039,2.43-0.09,3.282,0.564c0.862,0.726,0.837,1.682,0.874,2.72c0.007,3.228,0.005,6.457,0,9.683
	c-0.053,1.854-0.346,3.916-1.648,5.339c-1.191,1.341-2.827,2.587-4.603,2.982c-1.212,0.174-2.744,0.261-3.838-0.387
	c-0.82-0.465-1.573-1.118-1.854-2.05c-0.283-0.946-0.307-1.992-0.327-2.977c-0.005-5.753,0-11.507-0.002-17.26
	c-2.727-0.007-5.457-0.002-8.185,0c-0.002,0.46-0.002,0.922-0.005,1.382c0.963,0.046,2.275-0.007,3.083,0.595
	c0.692,0.515,0.745,1.411,0.794,2.2c0.075,4.361,0.058,8.72,0.051,13.083c0.014,1.333,0.186,2.749,0.728,3.979
	c0.76,1.571,2.393,2.703,4.022,3.226c2.28,0.75,4.898,0.467,7.04-0.583c1.943-0.985,3.582-2.602,4.702-4.463
	c0.186,1.9,0.213,3.712,1.031,5.479c2.229-0.738,4.552-1,6.892-0.985c-0.002-0.457-0.002-0.915-0.005-1.372
	C80.112,172.602,78.849,172.67,78.133,171.929z M256.039,160.388c0.479-5.249,4.574-9.828,9.724-10.917
	c3.349-0.661,6.958-0.252,9.859,1.629c2.43,1.585,4.417,4.032,5.266,6.822c0.83,2.718,0.782,5.721,0.036,8.451
	c-0.622,2.285-1.994,4.271-3.824,5.76c-3.843,3.211-9.542,3.754-14.053,1.701c-2.982-1.447-5.414-3.942-6.411-7.144
	C255.913,164.623,255.933,162.547,256.039,160.388z M261.087,165.973c0.31,2.076,0.825,4.23,2.41,5.723
	c1.471,1.447,3.48,1.972,5.498,1.931c1.793-0.075,3.541-0.557,4.857-1.832c1.532-1.387,2.137-3.475,2.427-5.455
	c0.387-3.069,0.39-6.241-0.179-9.286c-0.409-1.96-1.244-4-2.95-5.179c-1.759-1.3-4.117-1.503-6.212-1.14
	c-1.626,0.319-3.095,1.2-4.083,2.539c-1.055,1.421-1.481,3.231-1.742,4.949C260.77,160.758,260.763,163.437,261.087,165.973z
	 M114.959,158.297c-0.213,3.153-0.148,6.573,0.799,9.61c0.612,1.825,1.539,3.512,3.228,4.54c1.813,1.108,4.291,1.137,6.292,0.598
	c2.217-0.61,3.911-2.251,4.831-4.329c0.511-0.012,1.021-0.024,1.532-0.036c-0.656,1.97-1.866,3.516-3.63,4.608
	c-2.66,1.658-6.033,2.21-9.066,1.372c-4.298-1.087-7.865-4.806-8.705-9.167c-0.545-2.548-0.394-5.196,0.322-7.696
	c0.83-2.875,2.74-5.45,5.268-7.055c2.418-1.522,5.46-1.859,8.231-1.341c2.11,0.356,4.046,1.503,5.339,3.211
	c1.336,1.67,2.108,3.533,2.239,5.677C126.079,158.304,120.518,158.285,114.959,158.297z M115.097,157.087
	c3.766,0.012,7.531-0.029,11.297,0.022c0.315-1.336,0.165-2.73-0.445-3.959c-0.627-1.222-1.827-2.127-3.151-2.461
	c-2.006-0.385-4.121-0.087-5.588,1.438C115.932,153.425,115.344,155.323,115.097,157.087z M325.011,153.742
	c-0.992-0.334-1.273-1.871-2.251-2.171c-1.062-0.143-1.902,0.762-2.589,1.438c1.379,2.166,1.851,4.821,1.225,7.321
	c-0.52,1.972-1.75,3.802-3.417,4.983c-1.883,1.283-4.407,1.721-6.641,1.897c-1.832,0.092-3.509,0.056-5.264,0.724
	c-0.658,0.269-1.312,0.714-1.542,1.421c-0.179,0.67,0.235,1.35,0.852,1.612c1.503,0.675,3.444,0.67,5.07,0.852
	c2.911,0.121,6.024,0.271,8.86,1.009c2.047,0.53,3.836,1.98,4.743,3.894c0.806,1.653,0.912,3.649,0.508,5.423
	c-0.653,2.706-2.928,4.69-5.477,5.605c-2.125,0.82-4.293,0.932-6.537,1.038c-3.466-0.09-6.839-0.574-9.639-2.781
	c-1.486-1.152-2.425-2.899-2.374-4.799c0.031-1.44,0.544-2.894,1.888-3.596c0.859-0.467,1.694-0.351,2.633-0.336
	c-0.424,0.578-0.823,1.176-1.181,1.798c-0.62,1.104-0.811,2.415-0.535,3.652c0.499,1.938,2.173,3.303,3.996,3.962
	c2.195,0.833,4.359,0.791,6.662,0.745c1.861-0.034,3.797-0.547,5.348-1.595c1.319-0.895,2.282-2.28,2.408-3.896
	c0.104-1.307-0.167-2.773-1.089-3.761c-0.828-0.903-2.079-1.309-3.238-1.585c-4.071-0.881-7.984-0.332-12.079-1.496
	c-1.324-0.38-2.599-1.355-3.098-2.667c-0.508-1.488-0.097-3.25,1.07-4.322c1.06-1.026,2.556-1.394,3.925-1.813
	c-1.885-1.118-3.669-2.677-4.625-4.685c-0.883-1.837-1.026-4.032-0.486-5.99c0.615-2.159,2.282-3.933,4.175-5.07
	c2.481-1.517,5.624-1.665,8.398-1.012c1.776,0.426,3.332,1.365,4.639,2.626c1.147-1.181,2.444-2.297,4.104-2.64
	c1.118-0.244,2.471-0.075,3.272,0.818c0.712,0.724,0.806,1.922,0.349,2.798C326.616,153.871,325.778,153.917,325.011,153.742z
	 M316.461,153.888c-0.862-2.304-3.422-3.659-5.828-3.245c-1.44,0.22-2.609,1.099-3.286,2.374c-1.033,1.912-1.089,4.286-1.038,6.408
	c0.065,1.798,0.431,3.654,1.769,4.959c1.774,1.815,4.903,1.968,6.825,0.3c1.551-1.261,1.951-3.117,2.118-5.014
	C317.124,157.791,317.122,155.674,316.461,153.888z M100.499,174.393c-2.594,0.857-5.67,0.949-8.202-0.177
	c-1.675-0.741-2.892-2.016-3.906-3.507c-1.336,1.227-2.253,2.723-3.066,4.33c-0.392,0-0.786,0.002-1.179,0.002
	c-0.019-10.447-0.002-20.897-0.01-31.345c-0.007-1.74,0.068-3.383-0.179-5.111c-0.09-0.753-0.588-1.418-1.29-1.699
	c-0.709-0.293-1.59-0.288-2.35-0.344c0.007-0.467,0.015-0.934,0.022-1.401c2.754,0,5.397-0.549,8.03-1.304
	c0.065,6.287-0.005,12.58,0.036,18.867c1.244-0.946,2.43-1.888,3.872-2.524c2.669-1.237,5.721-1.285,8.502-0.392
	c2.936,0.995,5.254,3.26,6.561,6.045c0.883,1.895,1.215,3.937,1.278,6.014c-0.041,2.715-0.595,5.351-2.067,7.664
	C105.136,171.726,103.033,173.589,100.499,174.393z M102.89,156.087c-0.627-1.834-1.75-3.521-3.478-4.477
	c-1.498-0.859-3.192-0.961-4.867-0.695c-2.473,0.516-4.407,1.934-6.157,3.691c0.012,2.655,0.002,5.312,0.005,7.967
	c-0.027,1.931,0.019,3.899,0.324,5.806c0.244,1.479,1.133,2.604,2.248,3.548c2.614,2.379,7.183,2.188,9.6-0.387
	c1.987-1.958,2.744-4.811,3.006-7.507C103.763,161.37,103.742,158.645,102.89,156.087z M380,172.701
	c-0.002,0.462-0.002,0.922-0.002,1.384c-4.104-0.012-8.209,0.012-12.311-0.012c0-0.457,0.002-0.912,0.002-1.37
	c0.905-0.051,1.96-0.01,2.812-0.344c0.818-0.339,1.278-1.171,1.251-2.043c0.061-4.593,0.056-9.194,0.017-13.787
	c-0.029-1.462-0.01-2.822-1.077-3.952c-1.467-1.595-3.686-1.803-5.677-1.212c-2.27,0.695-4.022,2.449-5.394,4.317
	c-0.387,0.477-0.266,0.987-0.295,1.566c0.044,4.274-0.053,8.552,0.063,12.826c0.01,0.833,0.198,1.602,0.927,2.086
	c0.816,0.506,2.028,0.46,2.962,0.532c0.002,0.462,0.005,0.924,0.005,1.389c-4.056,0-8.115,0.002-12.171-0.002
	c0.019-0.307,0.039-0.612,0.058-0.92c-0.094-0.034-0.191-0.07-0.286-0.104c-0.612,0.719-1.278,1.203-2.209,1.421
	c-1.68,0.407-3.846,0.288-5.082-1.079c-0.777-0.794-1.033-1.767-1.275-2.817c-1.694,1.096-3.332,2.205-5.193,3.011
	c-1.856,0.82-3.925,1.372-5.953,0.929c-1.496-0.293-2.853-1.145-3.71-2.41c-0.784-1.227-0.888-2.715-0.503-4.1
	c0.44-1.614,1.573-2.904,2.902-3.87c3.838-2.817,8.173-4.3,12.512-6.106c-0.114-1.404-0.027-2.851-0.273-4.235
	c-0.286-1.655-1.868-2.72-3.4-3.088c-1.159-0.227-2.403-0.218-3.572-0.063c-1.101,0.206-2.21,0.69-2.776,1.709
	c-0.503,1.029-0.443,2.432-1.241,3.34c-0.598,0.77-1.902,0.915-2.713,0.462c-0.961-0.598-0.818-1.929-0.358-2.8
	c1.101-1.929,3.146-3.33,5.312-3.773c2.459-0.508,5.034-0.566,7.502-0.097c1.704,0.327,3.359,1.234,4.482,2.565
	c1.055,1.287,1.186,3.352,1.222,4.951c0.01,3.63-0.012,7.263,0.007,10.895c0.07,1.237,0.005,2.635,0.438,3.807
	c0.411,0.963,1.938,0.968,2.652,0.356c0.743-0.632,0.891-1.479,1.123-2.374c0.38-0.01,0.76-0.017,1.14-0.022
	c-0.06,1.128-0.281,2.011-0.762,3.035c0.932-0.09,2.122-0.039,2.94-0.54c0.656-0.397,0.905-1.101,0.92-1.839
	c0.099-2.655,0.053-5.334,0.065-7.993c-0.01-2.662,0.034-5.334-0.058-7.994c-0.005-0.75-0.223-1.462-0.874-1.893
	c-0.852-0.547-2.004-0.45-2.982-0.486c-0.019-0.474-0.036-0.949-0.051-1.423c1.776-0.218,3.536-0.532,5.264-1.002
	c0.716-0.198,1.442-0.332,2.183-0.421c0.513,1.592,0.654,3.219,0.808,4.872c1.481-1.74,3.204-3.202,5.339-4.075
	c2.214-0.888,4.751-0.968,7.025-0.252c1.711,0.607,3.294,1.859,3.824,3.654c0.678,2.345,0.513,4.91,0.535,7.326
	c0.019,3.066-0.046,6.137,0.048,9.201c0.073,0.845,0.041,1.638,0.777,2.207C377.694,172.675,379.042,172.612,380,172.701z
	 M342.288,167.9c-0.027-2.795,0.005-5.593-0.022-8.388c-2.878,1.254-5.627,2.043-8.078,4.121c-1.273,1.074-2.323,2.514-2.483,4.218
	c-0.162,1.469,0.191,2.994,1.387,3.957c1.024,0.842,2.413,0.791,3.616,0.411c1.9-0.615,3.652-1.822,5.22-3.035
	C342.421,168.858,342.24,168.41,342.288,167.9z M354.676,189.187c-0.929,0.303-2.12,0.489-3.059,0.14
	c-0.557-0.261-0.479-0.818-0.528-1.333c-0.022-1.859,0.012-3.717-0.012-5.576c0.012-0.544-0.041-1.179,0.157-1.694
	c0.247-0.52,1.111-0.469,1.588-0.632c-0.039-0.232-0.085-0.46-0.138-0.687c-1.849,0.017-3.703-0.046-5.549,0.034
	c-0.027,0.218-0.051,0.436-0.075,0.653c0.44,0.109,0.907,0.184,1.331,0.356c0.382,0.363,0.327,0.987,0.353,1.474
	c-0.005,1.943-0.005,3.884,0.005,5.828c-0.019,0.486,0.019,1.13-0.278,1.544c-0.254,0.305-0.811,0.276-1.181,0.361
	c-0.102,0.22-0.203,0.443-0.302,0.666c0.542,0.073,1.077,0.145,1.624,0.145c2.786-0.029,5.571,0,8.357-0.017
	c0.056-1.256,0.053-2.512,0.048-3.768c-0.242,0.007-0.482,0.012-0.721,0.019C356.051,187.773,355.773,188.715,354.676,189.187z
	 M365.959,189.117c-0.956,0.39-2.222,0.561-3.211,0.211c-0.557-0.184-0.467-0.866-0.511-1.331c0-2.105,0.005-4.211-0.002-6.316
	c0.027-0.407-0.015-0.961,0.348-1.237c0.392-0.15,0.825-0.227,1.234-0.322c-0.007-0.24-0.015-0.477-0.022-0.716
	c-1.844,0.015-3.693-0.036-5.535,0.022c-0.029,0.225-0.056,0.45-0.08,0.678c0.595,0.109,1.113,0.264,1.653,0.54
	c-0.01,2.694,0.051,5.399-0.019,8.088c-0.07,0.915-0.825,0.726-1.471,0.995c-0.085,0.23-0.15,0.47-0.198,0.716
	c3.32,0.017,6.643,0.01,9.963,0.005c0.027-1.256,0.08-2.512,0.051-3.768c-0.237,0.002-0.477,0.007-0.714,0.012
	C367.178,187.701,366.97,188.603,365.959,189.117z M377.394,188.93c-1.05,0.845-2.604,0.939-3.679,0.085
	c-0.859-0.678-1.275-1.912-1.425-2.96c-0.181-1.314-0.114-2.766,0.407-4.003c0.407-0.958,1.242-1.711,2.289-1.873
	c1.239-0.184,2.466,0.499,3.192,1.474c0.462,0.607,0.653,1.275,0.898,1.984c0.286-0.012,0.569-0.027,0.852-0.041
	c-0.073-1.341-0.213-2.669-0.189-4.015c-0.252-0.002-0.503-0.007-0.757-0.01c-0.106,0.3-0.211,0.6-0.315,0.9
	c-2.154-1.905-5.651-1.597-7.58,0.467c-2.115,2.178-2.106,6.062,0.131,8.158c1.413,1.411,3.439,1.791,5.348,1.37
	c0.789-0.225,1.493-0.84,2.13-1.333c0.15,0.411,0.327,0.808,0.528,1.198c0.257,0.007,0.513,0.017,0.77,0.024
	c0.002-1.413,0.002-2.827,0.002-4.24c-0.266,0.007-0.535,0.015-0.801,0.019C378.8,187.226,378.364,188.224,377.394,188.93z
	 M344.49,184.838c-1.346,0.772-2.986,0.632-4.482,0.658c-0.029,1.256-0.027,2.51,0.036,3.763c0.494,0.186,1.012,0.312,1.508,0.499
	c0.07,0.225,0.136,0.453,0.194,0.682c-1.89,0.027-3.783-0.002-5.673,0.017c0.01-0.264,0.017-0.525,0.027-0.789
	c0.67-0.157,1.418-0.031,1.462-0.939c0.075-2.26-0.005-4.533,0.034-6.796c-0.029-0.486,0.065-1.147-0.302-1.52
	c-0.404-0.148-0.84-0.22-1.261-0.312c0.073-0.174-0.036-0.816,0.254-0.726c2.159-0.039,4.385-0.281,6.525,0.017
	c0.668,0.08,1.309,0.288,1.873,0.658C346.422,180.987,346.284,184.029,344.49,184.838z M342.281,180.506
	c-0.697-0.29-1.505-0.356-2.253-0.295c-0.092,1.445-0.007,2.906-0.036,4.356c0.958-0.036,2.331,0.082,2.998-0.762
	C343.595,182.868,343.534,180.912,342.281,180.506z M299.201,189.789c-65.41-0.005-130.819,0-196.227-0.002
	c-0.697,0.002-1.401-0.031-2.096,0.029c-0.051,0.537-0.031,1.082-0.034,1.621c66.119-0.005,132.237-0.002,198.356-0.002
	C299.201,190.886,299.199,190.339,299.201,189.789z M287.498,212.77c-1.479,0.617-3.357,0.322-4.557-0.758
	c-1.44-1.212-2.028-2.829-2.519-4.586c-0.465-0.005-0.927-0.007-1.389-0.012c-0.002,2.202-0.002,4.405,0.002,6.604
	c0.453,0,0.908-0.002,1.362-0.005c0.128-0.566,0.252-1.135,0.46-1.68c0.24-0.182,0.486,0.247,0.68,0.363
	c2.2,2.253,6.319,2.769,8.845,0.787c1.626-1.273,2.708-3.444,2.369-5.53c-0.242-1.532-1.343-2.769-2.602-3.591
	c-1.854-1.191-3.995-2.021-5.932-3.054c-0.903-0.511-1.861-1.307-1.895-2.432c-0.077-1.191,0.82-2.171,1.943-2.43
	c1.433-0.293,3.047,0.169,4.056,1.244c0.847,0.866,1.295,1.912,1.706,3.032c0.467,0.007,0.934,0.015,1.404,0.022
	c0.007-1.808,0.002-3.616,0.002-5.423c-0.472,0.01-0.944,0.019-1.413,0.029c-0.136,0.537-0.276,1.072-0.407,1.609
	c-0.796-0.799-1.646-1.496-2.732-1.859c-2.134-0.772-4.668-0.273-6.28,1.348c-1.212,1.249-1.861,3.149-1.425,4.862
	c0.322,1.358,1.232,2.377,2.292,3.228c1.556,1.241,3.279,1.892,5.036,2.761c0.881,0.467,1.946,1.029,2.369,1.984
	C289.431,210.638,288.824,212.163,287.498,212.77z M140.962,196.928c1.559,0.658,1.854,2.239,2.098,3.732
	c0.46-0.075,0.92-0.131,1.384-0.143c-0.031-1.793-0.01-3.589-0.017-5.382c-6.353-0.031-12.708-0.005-19.06-0.012
	c0.005,1.827-0.01,3.657,0.007,5.484c0.448,0.005,0.893,0.01,1.341,0.015c0.169-1.421,0.353-2.851,1.759-3.579
	c1.329-0.484,2.965-0.242,4.366-0.293c0,4.584-0.005,9.16,0.002,13.744c-0.024,0.692-0.031,1.479-0.542,2.011
	c-0.583,0.469-1.571,0.477-2.287,0.566c-0.005,0.404-0.01,0.808-0.015,1.212c0.511,0.058,1.019,0.126,1.534,0.143
	c2.713-0.019,5.428-0.015,8.141-0.005c0.022-0.453,0.041-0.903,0.065-1.355c-0.755-0.102-1.786-0.123-2.381-0.656
	c-0.428-0.462-0.411-1.309-0.433-1.909c0.01-4.584,0-9.17,0.007-13.753C138.245,196.798,139.689,196.594,140.962,196.928z
	 M162.264,196.931c1.544,0.629,1.837,2.27,2.093,3.729c0.462-0.073,0.924-0.128,1.392-0.131c-0.034-1.801-0.01-3.599-0.015-5.399
	c-6.333,0.002-12.734-0.044-19.058,0.019c-0.077,1.815-0.014,3.645-0.022,5.462c0.462,0,0.922,0,1.382,0
	c0.092-1.408,0.356-2.856,1.723-3.572c1.321-0.482,2.945-0.235,4.339-0.293c0.002,4.664-0.005,9.325,0.005,13.988
	c-0.017,0.636-0.065,1.464-0.641,1.866c-0.607,0.368-1.476,0.38-2.168,0.47c-0.007,0.409-0.014,0.818-0.022,1.227
	c0.762,0.077,1.517,0.155,2.282,0.123c2.478-0.015,4.956-0.007,7.434,0c0.019-0.453,0.036-0.908,0.058-1.36
	c-0.758-0.097-1.793-0.116-2.398-0.639c-0.407-0.469-0.397-1.091-0.414-1.677c0.012-4.666,0.007-9.332,0.005-13.998
	C159.551,196.798,160.993,196.59,162.264,196.931z M233.37,196.657c0.6-0.119,1.21-0.203,1.82-0.244
	c-0.012-0.431-0.024-0.862-0.036-1.292c-2.406,0.002-4.811,0.002-7.214,0c0.002,0.45,0.007,0.898,0.012,1.346
	c0.847,0.08,1.757-0.022,2.355,0.709c0.351,0.525,0.365,1.316,0.382,1.931c-0.012,2.945,0.007,5.891-0.017,8.836
	c-3.165-3.775-6.37-7.524-9.552-11.287c-0.428-0.501-0.833-1.082-1.35-1.493c-1.849-0.08-3.734-0.053-5.586-0.012
	c-0.031,0.436-0.015,0.876-0.01,1.314c0.731,0.133,1.471,0.184,2.013,0.753c0.561,0.615,0.595,1.6,0.605,2.384
	c-0.012,3.712-0.002,7.425-0.002,11.135c-0.019,0.559-0.058,1.37-0.508,1.769c-0.557,0.45-1.488,0.457-2.171,0.561
	c0.017,0.45,0.034,0.903,0.051,1.355c2.316-0.036,4.644,0.044,6.96-0.034c0.341-0.29,0.215-0.893,0.286-1.304
	c-0.789-0.109-1.883-0.119-2.514-0.658c-0.424-0.469-0.419-1.324-0.44-1.924c0.015-3.611-0.019-7.221,0.022-10.832
	c4.104,4.978,8.318,9.871,12.449,14.83c0.47,0,0.939,0,1.409,0.002c0-4.724,0.002-9.45,0.002-14.174
	c0.005-0.811-0.044-1.641,0.046-2.447C232.446,197.313,232.814,196.812,233.37,196.657z M236.979,213.07
	c-0.007,0.404-0.015,0.811-0.024,1.215c0.516,0.058,1.026,0.126,1.546,0.14c5.213-0.019,10.43-0.012,15.646-0.005
	c0.109-2.147,0.116-4.296,0.191-6.442c-0.457,0-0.917,0.002-1.375,0.002c-0.307,1.515-0.632,2.914-1.897,3.935
	c-1.193,0.946-2.669,0.782-4.097,0.808c-0.794-0.022-1.854,0.051-2.519-0.45c-0.532-0.407-0.513-1.239-0.557-1.847
	c-0.024-1.786-0.007-3.577,0.002-5.363c1.166,0.044,2.553-0.148,3.654,0.286c0.673,0.385,0.675,1.488,0.803,2.149
	c0.436,0,0.871,0,1.307,0c-0.024-2.171,0.063-4.351-0.056-6.522c-0.428,0.005-0.854,0.01-1.28,0.012
	c-0.191,0.786-0.114,1.953-1.026,2.287c-1.091,0.247-2.297,0.133-3.415,0.157c0.005-2.229,0-4.458,0.002-6.689
	c1.515,0.007,3.03-0.017,4.545,0.012c0.741,0.024,1.438,0.077,2.033,0.571c0.818,0.668,1.13,1.856,1.454,2.819
	c0.445-0.002,0.893-0.005,1.341-0.01c-0.09-1.672-0.16-3.345-0.273-5.014c-4.506-0.002-9.012,0-13.519,0
	c-0.816,0.007-1.646-0.046-2.459,0.039c-0.046,0.402-0.051,0.811-0.065,1.215c0.709,0.09,1.51,0.143,2.154,0.46
	c0.714,0.404,0.661,1.326,0.707,2.033c-0.002,3.877-0.007,7.749,0.002,11.624c-0.024,0.685-0.044,1.467-0.54,1.997
	C238.687,212.971,237.695,212.971,236.979,213.07z M274.824,196.943c0.455-0.346,0.973-0.38,1.515-0.503
	c0.007-0.438,0.012-0.878,0.017-1.319c-2.355,0.005-4.709-0.002-7.064,0.002c0.012,0.453,0.022,0.908,0.036,1.36
	c0.702,0.094,1.726-0.107,2.067,0.69c0.324,0.724-0.237,1.67-0.588,2.299c-1,1.641-2.064,3.238-3.059,4.881
	c-1.113-1.909-2.27-3.795-3.366-5.714c-0.244-0.489-0.665-1.091-0.535-1.655c0.351-0.632,1.295-0.416,1.917-0.499
	c0.015-0.453,0.029-0.908,0.041-1.36c-3.015,0.015-6.045-0.044-9.056,0.024c-0.024,0.436-0.002,0.874,0.007,1.307
	c0.571,0.109,1.12,0.08,1.58,0.474c0.472,0.407,0.823,0.995,1.154,1.52c1.513,2.524,3.02,5.046,4.547,7.563
	c0.431,0.649,0.286,1.314,0.312,2.057c-0.051,1.544,0.172,2.928-0.37,4.414c-0.825,0.356-1.556,0.525-2.452,0.576
	c0.017,0.453,0.034,0.908,0.051,1.36c3.178-0.002,6.355-0.027,9.53,0.014c0.039-0.469,0.097-0.91,0.16-1.377
	c-0.728-0.087-1.738-0.08-2.314-0.59c-0.506-0.419-0.523-1.13-0.544-1.733c-0.01-1.484,0.015-2.969-0.005-4.453
	c1.527-2.343,3.028-4.702,4.569-7.035C273.514,198.463,274.071,197.538,274.824,196.943z M198.921,205.742
	c-0.01,1.583-0.005,3.165-0.012,4.748c0.015,0.6,0.005,1.425,0.402,1.912c0.588,0.535,1.626,0.554,2.377,0.661
	c-0.017,0.453-0.034,0.905-0.051,1.358c-3.173-0.01-6.348-0.01-9.523,0c-0.014-0.453-0.031-0.905-0.051-1.358
	c0.702-0.082,1.626-0.114,2.21-0.552c0.508-0.547,0.506-1.319,0.52-2.021c-0.015-3.872-0.012-7.744,0-11.616
	c-0.015-0.668-0.022-1.474-0.508-1.989c-0.583-0.438-1.513-0.438-2.212-0.552c0.007-0.453,0.012-0.903,0.022-1.355
	c3.899-0.027,7.655-0.414,11.556,0.106c1.677,0.172,3.277,0.743,4.431,2.018c1.496,1.682,1.59,4.538-0.046,6.157
	c-0.801,0.859-1.818,1.258-2.907,1.621c2.556,1.68,3.773,5.247,5.912,7.413c0.496,0.484,1.152,0.576,1.796,0.782
	c-0.022,0.45-0.044,0.898-0.065,1.348c-1.525-0.029-3.047,0.017-4.569-0.015c-0.528,0.029-0.757-0.271-1.053-0.646
	c-1.646-2.265-2.887-4.821-4.535-7.081C201.81,205.534,200.14,205.83,198.921,205.742z M198.916,204.133
	c1.621,0,3.151,0.036,4.61-0.794c1.036-0.646,1.258-1.88,1.275-3.013c0.007-1.089-0.203-2.246-1.137-2.931
	c-1.336-0.956-3.117-0.866-4.7-0.963C198.848,198.988,198.947,201.57,198.916,204.133z M189.047,202.756
	c0.738,3.48-0.523,7.403-3.344,9.629c-1.651,1.326-3.659,2.079-5.765,2.258c-2.551,0.235-5.327-0.099-7.551-1.45
	c-2.193-1.268-3.773-3.538-4.363-5.985c-0.765-3.064-0.104-6.449,1.909-8.903c1.576-1.863,3.836-3.042,6.244-3.391
	c3.211-0.455,6.723-0.048,9.368,1.97C187.394,198.269,188.618,200.508,189.047,202.756z M184.562,203.71
	c-0.087-1.563-0.382-3.277-1.193-4.642c-0.828-1.387-2.28-2.389-3.908-2.512c-1.07-0.07-2.277-0.094-3.294,0.283
	c-1.682,0.6-2.897,2.241-3.325,3.933c-0.578,2.275-0.581,4.666-0.22,6.975c0.302,1.459,0.888,2.904,2.05,3.894
	c1.355,1.261,3.485,1.583,5.242,1.198c1.713-0.317,3.119-1.619,3.802-3.187C184.541,207.758,184.637,205.747,184.562,203.71z
	 M118.01,212.434c0.15-1.137-0.678-2.422-1.062-3.478c-2.028,0.019-4.056,0.015-6.084,0c-0.392,0.922-0.898,1.963-0.951,2.969
	c0.203,1.067,1.379,0.953,2.205,1.147c-0.019,0.448-0.036,0.895-0.053,1.346c-2.193-0.007-4.385-0.007-6.578,0.002
	c-0.017-0.445-0.034-0.891-0.048-1.336c0.542-0.143,1.263-0.215,1.682-0.61c0.779-0.69,1.239-1.803,1.629-2.749
	c1.936-4.99,3.804-10.019,5.76-15.002c0.457-0.017,0.915-0.019,1.372-0.022c2.023,5.143,4.029,10.293,6.055,15.435
	c0.319,0.75,0.615,1.641,1.167,2.253c0.494,0.515,1.229,0.544,1.89,0.692c-0.019,0.448-0.036,0.893-0.053,1.338
	c-3.013-0.012-6.028-0.007-9.041,0c-0.019-0.455-0.039-0.908-0.058-1.363C116.459,212.949,117.676,213.078,118.01,212.434z
	 M116.452,207.502c-0.876-2.166-1.745-4.337-2.582-6.517c-0.854,2.166-1.658,4.349-2.471,6.527
	C113.083,207.511,114.768,207.526,116.452,207.502z M100.879,217.949c-0.01,0.561-0.022,1.123-0.041,1.684
	c66.124,0.005,132.25,0.002,198.373,0.002c-0.017-0.564-0.029-1.125-0.036-1.687C233.075,217.956,166.978,217.956,100.879,217.949z"
	/>
</svg>
