<?xml version="1.0" encoding="utf-8"?>
<!-- Generator: Adobe Illustrator 21.0.2, SVG Export Plug-In . SVG Version: 6.00 Build 0)  -->
<svg version="1.1" id="Layer_1" xmlns="http://www.w3.org/2000/svg" xmlns:xlink="http://www.w3.org/1999/xlink" x="0px" y="0px"
	 viewBox="0 0 252 144" style="enable-background:new 0 0 252 144;" xml:space="preserve">
<path style="fill:#0B5EAA;" d="M0,74.89h3.373v10.035L13.852,74.89h4.706L6.616,86.353l12.019,13.241h-4.297L3.373,87.543v12.051H0
	V74.89z M21.258,99.594h3.374V82.047L42.9,100.739v-25.85h-3.374v17.788L21.258,73.901V99.594z M129.498,87.123
	c0-1.859-1.508-3.368-3.368-3.368c-1.858,0-3.367,1.509-3.367,3.368c0,1.859,1.509,3.368,3.367,3.368
	C127.99,90.491,129.498,88.982,129.498,87.123 M162.565,87.123c0-1.859-1.508-3.368-3.366-3.368c-1.861,0-3.368,1.509-3.368,3.368
	c0,1.859,1.507,3.368,3.368,3.368C161.057,90.491,162.565,88.982,162.565,87.123 M45.647,87.096c0,3.696,1.326,6.841,3.976,9.439
	c2.65,2.596,5.861,3.893,9.638,3.893c3.827,0,7.054-1.288,9.686-3.866c2.631-2.577,3.946-5.731,3.946-9.467
	c0-3.526-1.331-6.57-3.995-9.135c-2.663-2.565-5.836-3.847-9.521-3.847c-3.776,0-7.007,1.273-9.695,3.818
	C46.992,80.475,45.647,83.531,45.647,87.096 M69.305,87.252c0,2.622-0.966,4.887-2.898,6.791c-1.934,1.905-4.232,2.857-6.895,2.857
	c-2.897,0-5.343-0.933-7.341-2.797c-1.998-1.868-2.996-4.15-2.996-6.85c0-2.659,0.974-4.939,2.919-6.838
	c1.946-1.9,4.283-2.849,7.01-2.849c2.87,0,5.288,0.933,7.253,2.802C68.324,82.231,69.305,84.526,69.305,87.252 M83.102,92.371
	l-7.518-17.444H72.1l10.967,25.443l7.953-18.278l7.947,18.278l10.947-25.443h-3.485l-7.463,17.249l-7.951-18.237L83.102,92.371z
	 M203.862,78.845c-1.9-1.823-3.759-3.066-5.575-3.732c-1.816-0.668-3.823-0.999-6.02-0.999c-3.698,0-6.845,1.276-9.445,3.828
	c-2.598,2.55-3.896,5.64-3.896,9.272c0,3.449,1.27,6.514,3.81,9.193c2.539,2.681,5.943,4.022,10.209,4.022
	c1.875,0,3.487-0.207,4.839-0.619c1.35-0.414,2.617-1.101,3.8-2.063c1.183-0.961,2.129-2.05,2.84-3.262
	c0.71-1.214,1.178-2.323,1.406-3.331c0.227-1.007,0.34-2.357,0.34-4.047h-10.529v3.374h6.67c-1.267,4.278-4.364,6.418-9.288,6.418
	c-3.285,0-5.86-0.978-7.728-2.935c-1.868-1.955-2.802-4.155-2.802-6.596c0-2.79,0.964-5.115,2.89-6.974
	c1.926-1.861,4.336-2.79,7.234-2.79c3.308,0,6.223,1.235,8.744,3.704L203.862,78.845 M139.956,104.413h11.382v-3.335h-8.048V58.23
	h-3.334V104.413z M213.283,88.308v11.286h3.374V88.269l8.105-13.379h-3.739l-6.004,9.947l-6.07-9.947h-3.733L213.283,88.308z"/>
<path style="fill:#A0CA41;" d="M172.185,77.961c-2.663-2.565-5.837-3.847-9.522-3.847c-3.775,0-7.007,1.273-9.695,3.818
	c-1.937,1.83-3.171,3.927-3.714,6.287c-1.274-0.484-3.24-0.987-6.033-1.06c-2.91-0.081-5.433,0.653-7.196,1.378
	c-0.5-2.462-1.748-4.654-3.744-6.576c-2.663-2.565-5.836-3.847-9.521-3.847c-3.776,0-7.007,1.273-9.696,3.818
	c-2.688,2.543-4.034,5.599-4.034,9.164c0,3.696,1.327,6.841,3.977,9.439c2.649,2.596,5.861,3.893,9.638,3.893
	c3.825,0,7.054-1.288,9.686-3.866c2.481-2.429,3.79-5.374,3.932-8.833c1.401-0.678,3.921-1.637,6.881-1.563
	c3.246,0.086,5.094,0.838,5.797,1.196c0.063,3.58,1.383,6.637,3.969,9.172c2.65,2.596,5.862,3.893,9.638,3.893
	c3.827,0,7.054-1.288,9.686-3.866c2.631-2.577,3.947-5.731,3.947-9.467C176.179,83.57,174.848,80.526,172.185,77.961z
	 M129.79,94.043c-1.933,1.905-4.231,2.857-6.893,2.857c-2.898,0-5.343-0.933-7.34-2.797c-1.998-1.868-2.996-4.15-2.996-6.85
	c0-2.659,0.972-4.939,2.919-6.838c1.945-1.9,4.282-2.849,7.009-2.849c2.871,0,5.288,0.933,7.254,2.802
	c1.966,1.864,2.947,4.16,2.947,6.885C132.69,89.873,131.724,92.139,129.79,94.043z M169.693,94.043
	c-1.933,1.905-4.23,2.857-6.894,2.857c-2.896,0-5.341-0.933-7.339-2.797c-1.998-1.868-2.997-4.15-2.997-6.85
	c0-2.659,0.972-4.939,2.918-6.838c1.947-1.9,4.283-2.849,7.01-2.849c2.87,0,5.288,0.933,7.253,2.802
	c1.965,1.864,2.947,4.16,2.947,6.885C172.592,89.873,171.627,92.139,169.693,94.043z M168.008,106.389
	c0.027,0.317-0.101,0.704-0.315,1.048c-0.899-0.016-1.222,0.226-1.493,0.057c-0.076-0.077-0.39-0.233-0.8-0.361
	c-0.012,0.042-0.022,0.085-0.033,0.127c-0.118,0.411-0.239,0.817-0.384,1.217c-0.275,0.803-0.618,1.578-0.991,2.341
	c-0.769,1.514-1.745,2.949-2.938,4.21c-1.187,1.26-2.602,2.345-4.165,3.122c-0.389,0.225-0.762,0.367-1.139,0.533l-1.135,0.485
	c-0.776,0.29-1.569,0.552-2.373,0.793c-0.831,0.182-1.643,0.416-2.511,0.488h-0.724c-0.456,0.005-1.124-0.095-1.898-0.171
	c-1.563-0.25-3.583-0.903-5.261-2.006c-1.692-1.09-3.014-2.511-3.921-3.596c-0.458-0.543-0.811-1.015-1.064-1.34
	c-0.249-0.328-0.392-0.517-0.392-0.517s0.19,0.152,0.52,0.417c0.333,0.261,0.801,0.643,1.385,1.06
	c1.156,0.839,2.76,1.863,4.481,2.381c1.709,0.557,3.456,0.607,4.725,0.448c0.316-0.045,0.606-0.084,0.866-0.122
	c0.254-0.05,0.478-0.117,0.66-0.162c0.361-0.091,0.569-0.143,0.569-0.143c0.53-0.075,1.059-0.235,1.588-0.343
	c0.666-0.197,1.332-0.419,1.993-0.662l0.981-0.423c0.324-0.142,0.669-0.274,0.942-0.441c1.188-0.587,2.246-1.402,3.161-2.372
	c0.916-0.969,1.688-2.097,2.306-3.319c0.299-0.616,0.581-1.244,0.801-1.896c0.042-0.112,0.077-0.225,0.114-0.338
	c-0.469,0.04-0.883,0.091-1.059,0.111c-0.487,0.047-0.813-0.304-1.381-0.96c0.278-0.815,0.525-1.274,1.058-1.364
	c0.289-0.055,1.163-0.162,1.98-0.195c0.816-0.039,1.578,0.003,1.578,0.003s0.761,0.021,1.632,0.192
	c0.869,0.154,1.867,0.592,2.171,0.88C167.838,105.757,167.976,106.084,168.008,106.389z M251.222,87.083
	c-0.401-0.599-0.913-1.072-1.449-1.438c-0.27-0.183-0.545-0.346-0.831-0.485c-0.199-0.096-0.374-0.175-0.584-0.254
	c0.002-0.101,0.005-0.205,0.006-0.303c0.01-0.179-0.002-0.354-0.038-0.525c-0.067-0.338-0.091-0.663-0.201-0.932
	c-0.102-0.271-0.199-0.511-0.283-0.707c-0.084-0.196-0.193-0.327-0.252-0.426c-0.062-0.095-0.096-0.147-0.096-0.147
	c-0.242-0.333-0.553-0.585-0.87-0.833c-0.302-0.277-0.668-0.413-1.01-0.607c-0.895-0.392-1.894-0.594-2.82-0.519
	c-0.236-0.003-0.461,0.036-0.687,0.069c-0.228,0.029-0.452,0.072-0.669,0.131c-0.088,0.02-0.173,0.051-0.26,0.075
	c-0.425-0.532-1.137-1.041-1.889-1.299c-0.214-0.076-0.432-0.147-0.647-0.198c-0.11-0.025-0.209-0.054-0.329-0.075l-0.391-0.05
	c-0.511-0.036-0.983,0.026-1.374,0.129c-0.483,0.123-0.863,0.277-1.157,0.413c0.516-0.647,1.042-1.295,1.496-1.98l1.662-2.377
	l0.833-1.195l0.775-1.229c0,0,0.173-0.381,0.476-1.047c0.223-0.486,0.491-1.08,0.801-1.76c0.411-0.872,0.771-1.929,1.221-3.043
	c0.215-0.577,0.455-1.111,0.671-1.787c0.213-0.684,0.392-1.428,0.431-2.277c0.029-0.836-0.043-1.829-0.648-2.816
	c-0.304-0.482-0.756-0.925-1.292-1.215c-0.535-0.29-1.125-0.425-1.679-0.442c-1.121-0.031-2.085,0.351-2.906,0.848
	c-0.814,0.516-1.503,1.173-2.049,1.914c-0.278,0.368-0.523,0.758-0.736,1.159c-0.214,0.395-0.345,0.721-0.52,1.087
	c-0.331,0.713-0.662,1.429-0.995,2.144c-1.315,2.866-2.694,5.718-3.849,8.421c-0.59,1.349-1.163,2.652-1.706,3.89
	c-0.273,0.618-0.536,1.219-0.792,1.799c-0.128,0.293-0.252,0.578-0.377,0.858c-0.123,0.276-0.231,0.616-0.341,0.91
	c-0.857,2.438-1.078,4.47-1.237,5.894c-0.074,0.713-0.102,1.272-0.122,1.661c-0.013,0.399-0.022,0.612-0.022,0.612l0.112,0.001
	c-3.846,2.834-5.613,8.782-2.941,11.734c0.568,0.714,1.086,1.116,1.476,1.414c0.392,0.295,0.678,0.465,0.894,0.595
	c1.287,0.752,2.394,1.06,3.444,1.236c1.052,0.168,2.066,0.183,3.247,0.066c-1.093-0.446-1.958-0.885-2.858-1.319
	c-0.892-0.441-1.83-0.868-2.913-1.517c-0.182-0.111-0.423-0.257-0.738-0.497c-0.314-0.241-0.726-0.567-1.14-1.09
	c-0.461-0.58-0.834-1.348-0.885-2.277c-0.041-0.459,0.043-0.955,0.15-1.519c0.025-0.138,0.05-0.277,0.075-0.417l0.12-0.406
	c0.084-0.272,0.145-0.557,0.27-0.817c0.409-1.079,1.065-2.097,1.92-2.915c0.851-0.822,1.89-1.446,2.962-1.839
	c1.072-0.4,2.18-0.547,3.14-0.504c0.983,0.039,1.832,0.301,2.527,0.589c0.693,0.305,1.261,0.642,1.712,0.869
	c0.447,0.23,0.755,0.341,0.755,0.341s0.054,0.028,0.183,0.065c0.127,0.038,0.309,0.102,0.578,0.143
	c0.26,0.049,0.611,0.063,0.999,0.007c0.32-0.046,0.57-0.097,0.915-0.132c0.658-0.075,1.464-0.12,2.302-0.025
	c0.41,0.048,0.846,0.142,1.137,0.293c0.145,0.069,0.221,0.159,0.221,0.159c0.001,0.004,0.007-0.028-0.017,0.088
	c-0.032,0.106-0.128,0.279-0.257,0.452c-0.15,0.184-0.284,0.333-0.504,0.556c-0.404,0.416-0.815,0.838-1.229,1.265
	c-0.207,0.222-0.399,0.382-0.596,0.571c-0.102,0.107-0.187,0.141-0.277,0.211c-0.089,0.062-0.177,0.14-0.262,0.156
	c-0.087,0.025-0.154,0.082-0.257,0.098c-0.104,0.012-0.209,0.027-0.313,0.046c-0.235,0.019-0.513,0.007-0.777,0.007
	c-1.16-0.055-2.273-0.196-3.394-0.353c-0.289-0.032-0.577-0.067-0.858-0.102c-0.304-0.011-0.595-0.046-0.901-0.03
	c-0.305,0.014-0.606,0.02-0.895,0.083c-0.293,0.044-0.571,0.102-0.826,0.19c-0.596,0.168-0.997,0.335-1.438,0.507
	c-0.206,0.081-0.418,0.178-0.619,0.27l-0.173,0.094l-0.083,0.047c-0.031,0.018-0.09,0.06-0.129,0.09
	c-0.054,0.043-0.073,0.053-0.145,0.123c-0.074,0.075-0.142,0.167-0.19,0.267c-0.025,0.047-0.044,0.097-0.062,0.146
	c0,0-0.015,0.047-0.025,0.102c-0.007,0.051-0.013,0.108-0.013,0.165c0.001,0.118,0.025,0.245,0.073,0.354
	c0.047,0.112,0.099,0.195,0.173,0.273c0.083,0.09,0.196,0.169,0.31,0.217l0.043,0.018c0.379-0.04,0.599-0.064,0.724-0.077
	c-0.01,0.001,0.004,0,0.069-0.007v0c0.122-0.013,0.063-0.007,0,0v-0.001h0.003l0.004-0.003l0.016-0.009l0.043-0.026
	c0.503-0.287,0.925-0.447,1.202-0.539c0.564-0.187,1.063-0.278,1.491-0.28c0.22-0.008,0.415,0.018,0.605,0.056
	c0.196,0.041,0.414,0.139,0.626,0.198c0.206,0.085,0.409,0.187,0.622,0.282c0.191,0.125,0.411,0.228,0.608,0.373
	c0.409,0.276,0.816,0.613,1.207,1.053c-0.14-0.573-0.359-1.1-0.653-1.569c-0.074-0.132-0.163-0.254-0.255-0.373
	c0.88,0.114,1.818,0.215,2.761,0.259c0.331,0.002,0.657,0.018,1.021-0.013l0.577-0.092c0.193-0.038,0.395-0.138,0.588-0.213
	c0.208-0.072,0.354-0.189,0.512-0.299c0.151-0.109,0.332-0.222,0.44-0.335c0.237-0.224,0.499-0.454,0.699-0.67
	c0.418-0.428,0.832-0.854,1.237-1.272c0.409-0.433,0.921-0.92,1.197-1.751c0.056-0.167,0.089-0.371,0.09-0.585
	c0.098-0.052,0.198-0.105,0.304-0.161c0.951-0.506,2.157-1.472,2.967-2.811c0.132-0.241,0.269-0.483,0.4-0.73
	c0.026,0.012,0.052,0.024,0.075,0.036c0.169,0.081,0.327,0.176,0.476,0.276c0.297,0.202,0.531,0.435,0.693,0.673
	c0.163,0.24,0.26,0.484,0.283,0.772c0.035,0.136-0.003,0.302,0.005,0.456c-0.026,0.175-0.053,0.311-0.098,0.531
	c-0.12,0.487-0.211,0.925-0.324,1.341c0,0-0.025,0.17-0.069,0.467c-0.05,0.292-0.125,0.705-0.251,1.176
	c-0.059,0.24-0.153,0.474-0.237,0.743c-0.105,0.243-0.214,0.509-0.352,0.762c-0.153,0.229-0.304,0.521-0.475,0.702
	c-0.089,0.102-0.202,0.195-0.305,0.299c-0.12,0.082-0.236,0.177-0.359,0.26c-0.501,0.319-1.09,0.484-1.659,0.408
	c-0.566-0.071-1.122-0.265-1.486-0.603c-0.379-0.319-0.626-0.685-0.776-0.951c-0.145-0.271-0.197-0.433-0.197-0.433
	s0.007,0.163,0.079,0.464c0.079,0.294,0.218,0.723,0.53,1.183c0.122,0.184,0.288,0.357,0.475,0.523
	c-0.028,0.068-0.124,0.297-0.287,0.69c-0.207,0.471-0.509,1.177-0.951,2.019c-0.212,0.434-0.475,0.871-0.756,1.353
	c-0.149,0.22-0.304,0.447-0.465,0.684c-0.166,0.205-0.329,0.379-0.504,0.587c-0.453,0.399-0.95,0.829-1.551,1.191
	c-0.291,0.186-0.606,0.365-0.924,0.52c-0.158,0.073-0.323,0.169-0.48,0.221c-0.181,0.061-0.245,0.133-0.616,0.181
	c-0.158,0.031-0.294,0.048-0.472,0.088c-0.201,0.055-0.404,0.107-0.607,0.162c-0.179,0.069-0.297,0.163-0.414,0.275
	c-0.054,0.053-0.126,0.136-0.176,0.204c-0.047,0.062-0.074,0.112-0.109,0.172c-0.064,0.117-0.135,0.284-0.159,0.511
	c-0.022,0.107-0.007,0.238-0.003,0.362c0.007,0.125,0.054,0.212,0.081,0.319c0.008,0.04-0.005,0.025-0.003,0.042l-0.04,0.1
	c-0.024,0.067-0.072,0.16-0.112,0.245c-0.331,0.701-0.825,1.44-1.376,2.149c-1.127,1.417-2.579,2.749-4.255,3.904
	c-3.354,2.331-7.551,3.98-11.908,4.977c-4.368,0.963-8.856,1.544-13.076,1.474c-4.215-0.024-8.151-0.419-11.477-1.033
	c-0.835-0.131-1.621-0.334-2.377-0.483c-0.756-0.158-1.471-0.306-2.134-0.492c-0.666-0.173-1.289-0.335-1.864-0.485
	c-0.289-0.071-0.561-0.156-0.822-0.235c-0.1-0.031-0.193-0.06-0.282-0.088c-0.667-0.204-1.049-0.319-1.049-0.319
	c-3.796-0.745-7.587-1.77-11.224-3.239c3.088,2.252,6.486,4.167,10.012,5.84c0,0,0.401,0.124,1.105,0.338
	c0.176,0.054,0.371,0.114,0.583,0.18c0.133,0.039,0.268,0.081,0.406,0.123c0.155,0.051,0.317,0.089,0.481,0.133
	c0.327,0.085,0.667,0.174,1.017,0.267c0.705,0.172,1.445,0.397,2.243,0.561c0.794,0.17,1.633,0.346,2.505,0.533
	c3.509,0.658,7.659,1.181,12.137,1.26c4.481,0.064,9.256-0.447,13.941-1.44l1.753-0.404l1.729-0.507
	c1.158-0.304,2.272-0.769,3.395-1.158c2.207-0.907,4.328-1.971,6.245-3.258c1.915-1.283,3.618-2.794,4.99-4.48
	c0.687-0.843,1.292-1.719,1.781-2.686c0.119-0.249,0.238-0.491,0.35-0.791l0.094-0.302l0.018-0.086h0.002l0.076-0.023l0.19-0.054
	c0.074-0.023,0.228-0.087,0.337-0.127c0.242-0.093,0.47-0.193,0.679-0.3c0.439-0.2,0.827-0.434,1.212-0.661
	c0.755-0.47,1.426-0.987,2.025-1.533c0.301-0.285,0.586-0.639,0.854-0.946c0.212-0.309,0.416-0.608,0.611-0.893
	c0.347-0.573,0.658-1.099,0.896-1.578c0.5-0.955,0.825-1.718,1.055-2.239c0.223-0.535,0.341-0.82,0.341-0.82l-0.244-0.095
	c0.33-0.006,0.664-0.041,0.989-0.127c0.207-0.044,0.4-0.121,0.594-0.201c0.199-0.071,0.382-0.176,0.564-0.28
	c0.189-0.093,0.36-0.235,0.535-0.362c0.159-0.132,0.291-0.268,0.436-0.405c0.575-0.539,0.975-1.143,1.296-1.656
	c0.307-0.522,0.534-0.972,0.669-1.284c0.142-0.313,0.221-0.492,0.221-0.492c0.164-0.601,0.309-1.229,0.434-1.742
	C252.146,89.972,252.086,88.274,251.222,87.083z M228.829,96.419v-0.002h0.003l0.003-0.002
	C228.819,96.429,228.814,96.433,228.829,96.419z M229.419,97.055l0.007-0.003l-0.002,0.001
	C229.425,97.054,229.407,97.061,229.419,97.055z M236.861,89.301c-0.251-0.04-0.419-0.115-0.419-0.115s-0.183-0.063-0.569-0.26
	c-0.388-0.193-0.984-0.554-1.821-0.92c-0.038-0.016-0.082-0.03-0.12-0.046l0.019-0.011c0.014,0.024-0.088-0.15-0.189-0.439
	c-0.104-0.28-0.178-0.681-0.121-0.913c0.026-0.048,0.045-0.091,0.053-0.142c0.032-0.069,0.109-0.175,0.156-0.257
	c0.103-0.176,0.211-0.333,0.322-0.454c0.199-0.264,0.369-0.409,0.369-0.409s0.036-0.109,0.091-0.273
	c0.072-0.152,0.16-0.377,0.281-0.585c0.226-0.429,0.559-0.81,0.559-0.81s-0.124-0.015-0.326-0.017c-0.199,0-0.472,0.01-0.747,0.05
	c-0.282,0.027-0.549,0.102-0.767,0.149c-0.211,0.056-0.347,0.108-0.347,0.108s-0.055,0.055-0.153,0.147
	c-0.102,0.091-0.228,0.238-0.374,0.421c-0.152,0.176-0.318,0.392-0.467,0.646c-0.079,0.124-0.157,0.252-0.239,0.384
	c-0.083,0.192-0.159,0.393-0.224,0.599c-0.099,0.448-0.085,0.851-0.029,1.201c-0.285-0.044-0.58-0.074-0.885-0.087
	c-1.121-0.051-2.318,0.103-3.498,0.488c0.014-0.183,0.031-0.377,0.053-0.591c0.134-1.272,0.359-3.145,1.045-5.13
	c0.089-0.245,0.181-0.497,0.273-0.753c0.12-0.276,0.242-0.556,0.369-0.84c0.25-0.571,0.509-1.16,0.775-1.766
	c0.532-1.212,1.091-2.49,1.672-3.811c1.137-2.662,2.458-5.42,3.74-8.208c0.323-0.695,0.647-1.392,0.967-2.083l0.48-1.036
	c0.082-0.188,0.158-0.321,0.234-0.456c0.07-0.143,0.162-0.267,0.242-0.399c0.337-0.518,0.754-0.952,1.195-1.292
	c0.445-0.331,0.928-0.543,1.335-0.599c0.416-0.046,0.656,0.048,0.797,0.187c0.153,0.133,0.296,0.465,0.32,0.918
	c0.031,0.446-0.04,0.966-0.17,1.474c-0.056,0.255-0.144,0.504-0.227,0.762c-0.107,0.274-0.212,0.543-0.316,0.806
	c-0.409,1.052-0.783,2.017-1.115,2.873c-0.347,0.76-0.649,1.423-0.896,1.97c-0.29,0.638-0.455,1.004-0.455,1.004
	c-0.571,1.87-1.327,3.663-2.014,5.503c-0.331,0.93-0.742,1.81-1.149,2.699l-0.42,0.923c-0.425,0.428-0.654,0.932-0.859,1.597
	c0.048-0.005,0.092-0.01,0.138-0.014l-0.082,0.18l0.148-0.186c0.905-0.093,1.493-0.167,2.264-0.574
	c0.223-0.107,0.682-0.337,1.219-0.47c0.269-0.074,0.549-0.099,0.801-0.085l0.183,0.023c0.071,0.012,0.161,0.037,0.24,0.054
	c0.164,0.038,0.317,0.088,0.467,0.141c0.599,0.214,0.995,0.545,1.194,0.853c0.207,0.304,0.27,0.568,0.27,0.568
	s0.089,0.24,0.127,0.683c0.037,0.435,0.005,1.109-0.15,1.775c-0.259,1.355-1.113,2.624-1.445,2.995
	c-0.501,0.595-0.69,1.091-0.976,1.797c-0.147,0.024-0.283,0.047-0.388,0.061C237.13,89.327,236.988,89.327,236.861,89.301z
	 M245.985,87.668c-0.356,1.293-1.172,2.438-1.961,3.175c-0.044,0.04-0.084,0.077-0.126,0.116c-0.037-0.169-0.097-0.334-0.19-0.482
	c-0.278-0.465-0.648-0.704-0.965-0.868c-0.644-0.315-1.209-0.402-1.74-0.474c-0.53-0.058-1.022-0.071-1.477-0.06
	c0.175-0.136,0.347-0.296,0.519-0.492c0.197-0.238,0.59-0.724,0.952-1.397c0.368-0.665,0.698-1.514,0.874-2.355
	c0.153-0.692,0.205-1.361,0.19-1.938c0.021-0.005,0.04-0.013,0.062-0.018c0.138-0.041,0.276-0.066,0.413-0.08
	c0.138-0.02,0.277-0.05,0.409-0.043c0.551-0.052,1.03,0.079,1.478,0.26c0.129,0.079,0.276,0.138,0.402,0.219
	c0.109,0.098,0.222,0.188,0.34,0.274c-0.02,0.017,0.404,0.23,0.766,0.916C246.297,85.098,246.406,86.37,245.985,87.668z"/>
</svg>
