<?xml version="1.0" encoding="utf-8"?>
<!-- Generator: Adobe Illustrator 22.0.1, SVG Export Plug-In . SVG Version: 6.00 Build 0)  -->
<svg version="1.1" id="Layer_1" xmlns="http://www.w3.org/2000/svg" xmlns:xlink="http://www.w3.org/1999/xlink" x="0px" y="0px"
	 viewBox="0 0 430 100" style="enable-background:new 0 0 430 100;" xml:space="preserve">
<path style="fill:#0C6CAC;" d="M117.417,41.215c-3.478,0-6.773,1.526-9.093,4.516V34.137c0-2.075-1.709-3.783-3.783-3.783
	c-2.258,0-3.966,1.709-3.966,3.783v33.807c0,2.136,1.709,3.845,3.844,3.845c2.197,0,3.906-1.709,3.906-3.845v-0.305
	c2.319,2.929,5.553,4.516,9.093,4.516c7.445,0,13.059-5.614,13.059-15.439C130.477,47.073,124.923,41.215,117.417,41.215z
	 M114.977,65.259c-2.502,0-5.37-1.404-6.652-3.295V51.528c1.281-1.953,4.15-3.417,6.652-3.417c4.516,0,7.506,3.478,7.506,8.605
	C122.483,61.841,119.492,65.259,114.977,65.259z M147.196,41.215c-3.418,0-10.008,1.221-11.839,4.15
	c-0.244,0.427-0.427,0.976-0.427,1.526c0,1.831,1.526,2.99,2.929,2.99c0.488,0,0.976-0.183,1.404-0.427
	c2.014-1.343,4.271-1.892,6.591-1.892c3.906,0,6.468,1.953,6.468,4.943v3.967c-1.953-2.319-5.431-3.601-9.337-3.601
	c-4.699,0-10.252,2.624-10.252,9.52c0,6.591,5.553,9.764,10.252,9.764c3.845,0,7.323-1.404,9.337-3.783
	c0,2.929,2.746,3.418,3.357,3.418h0.61c2.075,0,3.783-1.709,3.783-3.845V52.382C160.072,43.9,153.909,41.215,147.196,41.215z
	 M152.322,64.343c-1.281,1.709-3.722,2.563-6.224,2.563c-3.051,0-5.553-1.587-5.553-4.333c0-2.868,2.502-4.455,5.553-4.455
	c2.502,0,4.943,0.854,6.224,2.563V64.343z M183.565,44.877c0,2.319-1.586,3.661-3.723,3.966c-2.38,0.305-4.638,1.281-6.041,3.112
	v15.988c0,2.136-1.709,3.845-3.783,3.845h-0.122c-2.136,0-3.844-1.709-3.844-3.845V45.365c0-2.075,1.709-3.783,3.966-3.783
	c2.075,0,3.783,1.709,3.783,3.783v0.611c1.465-1.953,3.418-4.272,6.347-4.272C182.406,41.703,183.565,43.107,183.565,44.877z
	 M210.841,65.686c0.488,0.671,0.733,1.464,0.733,2.197c0,1.892-1.587,3.906-3.845,3.906c-1.221,0-2.502-0.549-3.234-1.648
	l-6.896-10.069l-3.539,3.783v4.088c0,2.136-1.709,3.845-3.906,3.845c-2.136,0-3.844-1.709-3.844-3.845V34.137
	c0-2.075,1.709-3.783,3.966-3.783c2.075,0,3.783,1.709,3.783,3.783v20.931l10.435-12.327c0.671-0.793,1.648-1.22,2.624-1.22
	c1.953,0,3.661,1.709,3.661,3.661c0,0.854-0.305,1.648-0.854,2.319l-6.835,7.811L210.841,65.686z M224.997,34.137v33.807
	c0,2.136-1.709,3.845-3.906,3.845c-2.136,0-3.844-1.709-3.844-3.845V34.137c0-2.075,1.709-3.783,3.966-3.783
	C223.288,30.353,224.997,32.062,224.997,34.137z M244.341,41.215c-8.97,0-15.256,6.896-15.256,15.439
	c0,9.459,6.774,15.5,15.744,15.5c3.906,0,11.412-1.404,11.412-4.882c0-1.831-1.648-3.112-3.295-3.112
	c-0.488,0-1.037,0.122-1.526,0.366c-1.831,0.976-4.089,1.464-5.736,1.464c-5.004,0-7.994-3.112-8.482-6.835h18.185
	c2.014,0,3.6-1.648,3.6-3.539c0-1.465-0.427-3.113-0.854-4.455C256.057,45.06,250.992,41.215,244.341,41.215z M237.079,53.908
	c0.366-2.929,2.441-6.529,7.262-6.529c5.126,0,7.079,3.722,7.262,6.529H237.079z M289.131,45.365c0,0.488-0.061,0.976-0.244,1.404
	l-11.9,29.475c-2.075,5.126-5.797,7.14-10.13,7.14c-2.685,0-4.76-1.343-4.76-3.478c0-1.831,1.465-3.418,3.661-3.418
	c0.305,0,0.671,0,0.976-0.061c1.281-0.244,2.38-0.854,2.929-2.075l1.098-2.502l-10.069-25.142c-0.183-0.427-0.244-0.854-0.244-1.281
	c0-1.892,1.526-3.845,3.906-3.845c1.526,0,2.99,0.976,3.601,2.563l6.835,18.308l6.835-18.308c0.549-1.526,2.075-2.563,3.723-2.563
	C287.666,41.581,289.131,43.473,289.131,45.365z M311.28,41.215c-4.15,0-7.811,2.136-9.947,5.126v-2.563
	c0-1.16-1.038-2.197-2.197-2.197c-1.343,0-2.38,1.037-2.38,2.197V80.82c0,1.16,1.037,2.197,2.258,2.197
	c1.281,0,2.319-1.037,2.319-2.197V66.967c2.38,3.295,5.919,5.187,9.947,5.187c7.75,0,13.12-5.98,13.12-15.5
	C324.4,47.073,319.031,41.215,311.28,41.215z M310.121,68.066c-3.601,0-7.201-2.197-8.788-4.76V50.003
	c1.586-2.563,5.187-4.699,8.788-4.699c5.919,0,9.458,4.821,9.458,11.35S316.04,68.066,310.121,68.066z M334.59,32.55V69.53
	c0,1.221-1.038,2.258-2.319,2.258c-1.221,0-2.258-1.038-2.258-2.258V32.55c0-1.159,1.037-2.197,2.38-2.197
	C333.552,30.353,334.59,31.39,334.59,32.55z M353.689,41.215c-4.211,0-7.872,1.282-10.984,4.089c-0.427,0.366-0.61,0.854-0.61,1.342
	c0,1.098,1.037,1.831,2.014,1.831c0.427,0,0.916-0.183,1.281-0.488c2.258-1.892,4.76-2.807,7.689-2.807
	c4.271,0,7.445,2.258,7.445,6.225v5.309c-2.38-2.746-5.736-4.028-9.764-4.028c-5.004,0-10.313,3.112-10.313,9.703
	c0,6.408,5.309,9.764,10.313,9.764c3.966,0,7.323-1.404,9.764-4.088v1.343c0,1.281,0.976,2.38,2.258,2.38s2.319-1.038,2.319-2.258
	V51.162C365.101,44.023,359.914,41.215,353.689,41.215z M360.524,65.198c-1.77,2.441-4.882,3.662-8.116,3.662
	c-4.272,0-7.262-2.685-7.262-6.408c0-3.783,2.99-6.469,7.262-6.469c3.234,0,6.346,1.221,8.116,3.662V65.198z M375.656,56.654
	c0,6.53,3.906,11.412,10.191,11.412c2.441,0,4.516-0.793,6.285-2.502c0.427-0.366,0.976-0.549,1.526-0.549
	c1.098,0,2.136,0.854,2.136,2.014c0,0.427-0.122,0.915-0.488,1.281c-2.258,2.319-5.248,3.844-9.703,3.844
	c-8.787,0-14.707-6.713-14.707-15.5c0-8.726,5.919-15.439,14.707-15.439c4.455,0,7.445,1.526,9.703,3.845
	c0.305,0.366,0.488,0.793,0.488,1.281c0,1.038-0.916,2.075-2.075,2.075c-0.61,0-1.159-0.244-1.586-0.671
	c-1.77-1.709-3.845-2.441-6.285-2.441C379.562,45.304,375.656,50.125,375.656,56.654z M428.075,55.678
	c0-1.037-0.244-2.136-0.427-3.051c-1.526-6.773-6.347-11.412-13.669-11.412c-8.422,0-14.524,6.896-14.524,15.439
	c0,9.215,6.285,15.5,15.012,15.5c3.601,0,11.229-1.769,11.229-4.943c0-1.16-1.038-1.892-1.831-1.892
	c-0.366,0-0.733,0.122-1.038,0.305c-2.319,1.831-5.126,2.746-7.933,2.746c-6.346,0-10.252-4.638-10.618-10.191h21.298
	C426.976,58.18,428.075,57.021,428.075,55.678z M404.275,54.824c0.244-4.516,3.356-9.825,9.642-9.825
	c6.713,0,9.642,5.431,9.703,9.825H404.275z"/>
<path style="fill:#0C6CAC;" d="M82.329,100c-4.241-3.974-9.472-5.994-14.937-7.541c-4.296-1.216-8.693-1.806-13.146-2.005
	c-2.53-0.114-5.063-0.154-7.596-0.211c-4.754-0.105-9.501-0.334-14.154-1.445c-6.712-1.601-12.791-4.503-18.1-8.928
	C7.099,73.785,2.692,65.959,0.64,56.749c-0.32-1.438-0.563-2.895-0.637-4.372c-0.005-0.095-0.001-0.19-0.001-0.411
	c0.702,0.741,1.303,1.412,1.969,2.02c3.49,3.187,7.499,5.559,11.769,7.52c4.822,2.214,9.878,3.71,15.04,4.884
	c6.702,1.523,13.474,2.734,20.121,4.505c4.954,1.32,9.836,2.86,14.472,5.07c6.864,3.27,12.047,8.324,15.632,15.015
	c1.464,2.731,2.589,5.598,3.222,8.643c0.01,0.049,0.067,0.09,0.102,0.134C82.329,99.838,82.329,99.918,82.329,100z"/>
<path style="fill:#5B94C6;" d="M10.923,23.564c1.525,1.334,3.022,2.572,4.583,3.729c4.092,3.032,8.259,5.953,13.185,7.507
	c3.767,1.189,7.553,2.318,11.296,3.582c5.534,1.869,10.971,3.979,16.164,6.67c4.287,2.221,8.383,4.76,12.18,7.748
	c2.694,2.118,4.743,4.802,6.44,7.757c3.328,5.791,5.127,12.097,6.201,18.64c0.105,0.637,0.163,1.28,0.206,1.944
	c-0.666-1.076-1.384-2.111-2.189-3.082c-2.267-2.736-4.942-5.016-7.88-6.995c-4.485-3.02-9.358-5.233-14.462-6.975
	c-4.918-1.679-9.994-2.746-15.044-3.908c-4.627-1.064-9.219-2.239-13.485-4.407c-4.4-2.235-8.01-5.392-10.931-9.356
	c-3.284-4.459-5.327-9.427-6.191-14.894C10.672,29.472,10.6,25.471,10.923,23.564z"/>
<path style="fill:#A6C0DF;" d="M80.181,54.514c-0.632-0.923-1.243-1.837-1.877-2.734c-1.036-1.467-2.19-2.838-3.374-4.19
	c-0.937-1.07-1.942-2.069-2.965-3.047c-2.327-2.224-4.875-4.16-7.684-5.746c-2.45-1.383-4.97-2.63-7.467-3.927
	c-4.3-2.234-8.666-4.358-12.644-7.162c-2.554-1.801-4.925-3.794-6.606-6.489c-1.008-1.617-1.576-3.4-1.998-5.238
	c-0.425-1.85-0.736-3.716-0.735-5.622c0.001-0.405-0.124-0.792-0.125-1.202c-0.004-3.073,0.26-6.123,0.761-9.152
	c0.221-0.042,0.225,0.148,0.282,0.255c1.16,2.205,2.582,4.227,4.18,6.14c2.583,3.098,5.684,5.519,9.229,7.428
	c2.599,1.4,5.257,2.678,7.892,4.007c2.632,1.328,5.228,2.741,7.586,4.525c2.199,1.664,4.121,3.611,5.846,5.774
	c2.113,2.651,3.926,5.482,5.387,8.533c1.715,3.585,2.96,7.331,3.661,11.248c0.323,1.806,0.628,3.614,0.62,5.459
	c-0.001,0.198,0.089,0.395,0.1,0.593C80.259,54.138,80.316,54.323,80.181,54.514z"/>
</svg>
