<?xml version="1.0" encoding="utf-8"?>
<!-- Generator: Adobe Illustrator 22.0.1, SVG Export Plug-In . SVG Version: 6.00 Build 0)  -->
<svg version="1.1" id="Layer_1" xmlns="http://www.w3.org/2000/svg" xmlns:xlink="http://www.w3.org/1999/xlink" x="0px" y="0px"
	 viewBox="0 0 400 100" style="enable-background:new 0 0 400 100;" xml:space="preserve">
<path style="fill:#2D2E2D;" d="M112.5,35.275h5.866c3.27,0,5.486,0.134,6.647,0.401c1.748,0.401,3.17,1.26,4.264,2.576
	c1.094,1.316,1.642,2.937,1.642,4.861c0,1.604-0.377,3.014-1.131,4.23c-0.754,1.216-1.832,2.135-3.234,2.756
	c-1.402,0.622-3.337,0.939-5.806,0.952l10.591,13.674h-3.641l-10.592-13.674h-1.664v13.674H112.5V35.275z M115.443,38.158v10.01
	l5.073,0.04c1.965,0,3.419-0.187,4.362-0.56c0.943-0.374,1.678-0.971,2.206-1.792c0.529-0.821,0.792-1.738,0.792-2.753
	c0-0.988-0.267-1.885-0.802-2.693c-0.535-0.807-1.237-1.385-2.106-1.732s-2.313-0.521-4.331-0.521h-5.194V38.158z M135.193,64.725
	h16.757v-2.883h-13.814V50.27h13.814v-2.883h-13.814v-9.229h13.934v-2.883h-16.877L135.193,64.725L135.193,64.725z M167.14,35.275
	l13.734,29.45h-3.179l-4.632-9.69h-12.687l-4.588,9.69h-3.283l13.915-29.45H167.14z M166.769,41.532l-5.047,10.66h10.069
	L166.769,41.532z M183.389,64.725h14.275v-2.843h-11.332V35.275h-2.943V64.725z M203.925,38.158v26.567h3.003V38.158h6.567v-2.883
	h-16.137v2.883H203.925z M222.878,50.651v14.074h2.903V50.651l9.33-15.376h-3.404l-7.417,12.146l-7.535-12.146h-3.387
	L222.878,50.651z"/>
<path style="fill:#224084;" d="M100,50c0,27.614-22.386,50-50,50S0,77.614,0,50S22.386,0,50,0S100,22.386,100,50"/>
<path style="fill:#EEA32B;" d="M292.007,50.099c1.401-0.621,2.479-1.54,3.234-2.756c0.754-1.216,1.131-2.626,1.131-4.23
	c0-1.924-0.548-3.545-1.642-4.861c-1.095-1.317-2.516-2.175-4.265-2.576c-1.161-0.267-3.377-0.401-6.647-0.401h-5.867v29.45h2.943
	V51.051h1.664l10.592,13.674h3.641L286.2,51.051C288.67,51.038,290.605,50.721,292.007,50.099z M280.895,48.168v-10.01h5.194
	c2.018,0,3.462,0.174,4.331,0.521s1.57,0.924,2.105,1.732c0.534,0.808,0.802,1.705,0.802,2.693c0,1.015-0.264,1.932-0.792,2.753
	c-0.528,0.821-1.263,1.418-2.206,1.792c-0.943,0.374-2.396,0.561-4.361,0.561L280.895,48.168z M257.884,35.275h16.878v2.883h-13.934
	v9.229h13.814v2.883h-13.814v11.572h13.814v2.883h-16.757v-29.45H257.884z M319.946,35.275h3.203l-12.813,29.45h-0.641
	l-12.633-29.45h3.203l9.76,22.752L319.946,35.275z M252.261,53.114c0.947,1.468,1.421,2.943,1.421,4.424
	c0,2.136-0.811,3.991-2.432,5.566c-1.622,1.575-3.593,2.362-5.916,2.362c-1.789,0-3.411-0.477-4.865-1.431
	c-1.455-0.954-2.797-2.552-4.024-4.795l2.503-1.501c1.762,3.243,3.797,4.865,6.107,4.865c0.988,0,1.915-0.231,2.783-0.691
	c0.867-0.461,1.528-1.078,1.982-1.852s0.681-1.595,0.681-2.462c0-0.988-0.334-1.956-1.001-2.903
	c-0.921-1.308-2.602-2.883-5.045-4.725c-2.456-1.855-3.984-3.196-4.585-4.024c-1.041-1.388-1.562-2.89-1.562-4.505
	c0-1.281,0.307-2.449,0.921-3.503s1.478-1.885,2.593-2.492c1.115-0.607,2.325-0.911,3.634-0.911c1.388,0,2.686,0.344,3.894,1.031
	c1.208,0.688,2.486,1.952,3.834,3.794l-2.403,1.822c-1.108-1.468-2.052-2.436-2.833-2.903c-0.781-0.467-1.632-0.701-2.553-0.701
	c-1.188,0-2.159,0.36-2.913,1.081c-0.754,0.72-1.131,1.608-1.131,2.663c0,0.641,0.133,1.262,0.4,1.862
	c0.267,0.601,0.754,1.255,1.462,1.962c0.387,0.374,1.655,1.355,3.804,2.943C249.565,49.97,251.313,51.645,252.261,53.114z
	 M364.564,35.275h16.877v2.883h-13.934v9.229h13.814v2.883h-13.814v11.572h13.814v2.883h-16.757L364.564,35.275L364.564,35.275z
	 M325.619,35.275h2.943v29.45h-2.943V35.275z M400,57.538c0,2.136-0.81,3.991-2.432,5.566s-3.594,2.362-5.916,2.362
	c-1.789,0-3.411-0.477-4.865-1.431c-1.455-0.954-2.797-2.552-4.024-4.795l2.503-1.501c1.762,3.243,3.797,4.865,6.106,4.865
	c0.988,0,1.916-0.231,2.783-0.691c0.867-0.461,1.528-1.078,1.982-1.852c0.453-0.774,0.68-1.595,0.68-2.462
	c0-0.988-0.334-1.956-1.001-2.903c-0.921-1.308-2.603-2.883-5.045-4.725c-2.456-1.855-3.984-3.196-4.585-4.024
	c-1.041-1.388-1.561-2.89-1.561-4.505c0-1.281,0.307-2.449,0.921-3.503c0.614-1.054,1.478-1.885,2.593-2.492
	c1.114-0.607,2.326-0.911,3.634-0.911c1.388,0,2.687,0.344,3.894,1.031c1.208,0.688,2.486,1.952,3.834,3.794l-2.402,1.822
	c-1.108-1.468-2.052-2.436-2.833-2.903s-1.632-0.701-2.553-0.701c-1.188,0-2.159,0.36-2.913,1.081
	c-0.754,0.72-1.131,1.608-1.131,2.663c0,0.641,0.134,1.262,0.4,1.862c0.267,0.601,0.754,1.255,1.462,1.962
	c0.387,0.374,1.655,1.355,3.804,2.943c2.549,1.882,4.298,3.557,5.246,5.025C399.526,54.582,400,56.056,400,57.538z M336.658,43.674
	c-1.101,1.902-1.652,4.041-1.652,6.416c0,3.591,1.231,6.587,3.694,8.989c2.462,2.403,5.569,3.604,9.32,3.604
	c4.124,0,7.575-1.615,10.35-4.845l2.323,1.761c-1.468,1.869-3.301,3.314-5.496,4.335c-2.196,1.021-4.648,1.531-7.358,1.531
	c-5.152,0-9.216-1.715-12.193-5.145c-2.496-2.896-3.744-6.393-3.744-10.49c0-4.311,1.512-7.938,4.535-10.881
	s6.81-4.415,11.362-4.415c2.75,0,5.232,0.544,7.448,1.632s4.031,2.613,5.446,4.574l-2.323,1.782
	c-1.281-1.668-2.819-2.932-4.615-3.793c-1.795-0.861-3.767-1.292-5.916-1.292c-2.349,0-4.525,0.564-6.527,1.692
	C339.311,40.257,337.759,41.772,336.658,43.674z M84.201,35.733h9.881v0.394c-1.813,0-3.153,1.065-4.022,3.195
	c-0.128,0.321-0.6,1.751-1.417,4.289l-6.281,20.482h-1.264l-5.656-21.281l-4.838,21.281h-1.302l-8.426-25.515
	c-0.383-1.196-0.773-1.903-1.168-2.123c-0.38-0.209-1.393-0.318-3.027-0.326c-2.223,0.009-3.702,0.183-4.423,0.524
	c-0.255,0.118-0.409,0.234-0.46,0.351c-0.128,0.263-0.191,0.789-0.191,1.578v22.445c0,0.877,0.051,1.417,0.153,1.621
	c0.051,0.118,0.236,0.242,0.556,0.373c0.319,0.132,0.874,0.242,1.666,0.329c0.791,0.087,1.749,0.131,2.872,0.131v0.437H42.07v-0.437
	c0.919,0,1.767-0.043,2.546-0.131c0.779-0.087,1.315-0.198,1.609-0.329c0.294-0.131,0.466-0.255,0.517-0.372
	c0.101-0.234,0.153-0.773,0.153-1.62l-0.038-23.81c0-0.495-0.051-0.744-0.152-0.744c-0.103,0-0.218,0.218-0.344,0.655l-6.994,26.786
	h-0.841l-8.254-26.788l-0.305-0.654c-0.076,0-0.115,0.248-0.115,0.743v18.309c0,3.234,0.377,5.368,1.13,6.402
	c0.753,1.035,2.176,1.551,4.27,1.551v0.437H24.414v-0.437c1.786,0,3.05-0.526,3.791-1.578c0.74-1.052,1.111-2.835,1.111-5.348
	V43.007c0-2.572-0.344-4.362-1.034-5.37c-0.661-0.966-1.889-1.457-3.653-1.497c-1.598,0.048-2.745,0.217-3.43,0.509l-0.344,0.176
	c-0.179,0.204-0.269,0.788-0.269,1.75v16.149c0,2.831-0.779,5.135-2.336,6.915c-1.558,1.78-3.639,2.67-6.243,2.67
	c-1.098,0-2.094-0.386-2.988-1.157c-0.894-0.772-1.481-1.595-1.762-2.469s-0.421-1.66-0.421-2.359c0-1.893,0.609-3.233,1.826-4.02
	c0.431-0.291,0.901-0.437,1.408-0.437c0.735,0,1.37,0.306,1.903,0.918c0.532,0.612,0.799,1.413,0.799,2.403
	c0,0.903-0.299,1.638-0.895,2.206c-0.596,0.568-1.262,0.852-1.997,0.852c-0.33,0-0.634-0.065-0.913-0.197
	c-0.279-0.131-0.545-0.313-0.799-0.546c-0.051,0.292-0.076,0.51-0.076,0.656c0,0.991,0.402,1.865,1.208,2.622
	c0.804,0.758,1.705,1.136,2.703,1.136c1.789,0,2.927-0.802,3.412-2.408c0.307-0.991,0.46-3.136,0.46-6.433v-16.5
	c0-0.817-0.064-1.342-0.191-1.576c-0.051-0.116-0.224-0.233-0.517-0.349c-0.294-0.117-0.875-0.234-1.743-0.35
	c-0.868-0.117-1.864-0.176-2.987-0.176v-0.394h13.976v-0.044l9.996,0.044l6.448,20.363l5.387-20.363h10.228h0.381h12.679v0.394
	c-1.558,0-2.637,0.095-3.236,0.285c-0.6,0.19-0.9,0.562-0.9,1.116c0,0.292,0.076,0.643,0.23,1.052l6.013,18.347l3.496-15.207
	l-0.815-3.126c-0.309-1.175-0.683-1.879-1.121-2.114s-1.558-0.352-3.361-0.352v-0.394H82.96v0.394c-1.552,0-2.626,0.095-3.224,0.285
	s-0.897,0.591-0.897,1.204c0,0.321,0.051,0.643,0.153,0.964l4.94,18.391l4.219-13.619c0.43-1.43,0.646-2.598,0.646-3.503
	c0-2.481-1.532-3.722-4.596-3.722C84.201,36.126,84.201,35.733,84.201,35.733z"/>
</svg>
